<svg width="29" height="29" viewBox="0 0 29 29" fill="none" xmlns="http://www.w3.org/2000/svg">
<rect width="29" height="29" rx="14.5" fill="white"/>
<g clip-path="url(#clip0_101_163)">
<path d="M23.1557 21.9072L16.1807 17.2725C16.1057 17.2355 15.4682 16.9018 14.8494 16.9018C14.2307 16.9018 13.7057 17.1428 13.6494 17.1799C14.4369 16.6608 15.0557 15.9378 15.4494 15.085L17.7182 10.0054L23.9244 21.2028C24.1869 21.6848 23.6244 22.2038 23.1557 21.9072Z" fill="#30D8D8"/>
<path d="M13.3114 5.59355L6.13011 19.683C5.62386 20.6655 6.76761 21.6852 7.70511 21.0734L19.5551 13.2871L15.2426 5.55647C14.8114 4.79638 13.7051 4.81492 13.3114 5.59355Z" fill="#382CDD"/>
<g style="mix-blend-mode:multiply">
<path d="M19.5479 13.3051L14.0293 16.904C14.6376 16.4164 15.1221 15.7958 15.4503 15.085L17.719 10.0054L19.5479 13.3051Z" fill="#526868"/>
</g>
</g>
<defs>
<clipPath id="clip0_101_163">
<rect width="18" height="17" fill="white" transform="translate(6 5)"/>
</clipPath>
</defs>
</svg>
