<svg width="532" height="464" viewBox="0 0 532 464" fill="none" xmlns="http://www.w3.org/2000/svg">
<path d="M471.134 329.722C477.026 333.112 477.038 341.608 471.156 345.015L275.813 458.145C270.355 461.306 263.625 461.315 258.158 458.17L61.4337 344.977C55.5424 341.588 55.5306 333.091 61.4124 329.685L256.755 216.561C262.213 213.4 268.943 213.391 274.409 216.536L471.134 329.722Z" fill="#382CDD"/>
<path d="M471.709 333.895C478.326 330.063 478.312 320.505 471.685 316.692L274.96 203.506C269.151 200.164 262.001 200.174 256.202 203.532L60.8593 316.656C54.2423 320.488 54.2556 330.046 60.8833 333.86L257.608 447.052C263.417 450.394 270.567 450.384 276.367 447.026L471.709 333.895Z" fill="#27272E" stroke="#382CDD" stroke-width="2.20715"/>
<path d="M443.192 301.273L279.224 396.011C271.55 400.444 262.097 400.457 254.412 396.046L89.3126 301.273L262.742 201.075C264.559 200.025 266.797 200.022 268.617 201.067L443.192 301.273Z" fill="#16161C"/>
<path opacity="0.32" d="M438.745 275.218C442.679 277.477 442.687 283.148 438.76 285.418L269.777 383.084C267.96 384.134 265.721 384.137 263.901 383.092L93.7577 285.393C89.8242 283.134 89.8163 277.463 93.7435 275.193L262.727 177.533C264.544 176.483 266.782 176.48 268.602 177.525L438.745 275.218Z" fill="url(#paint0_linear_113_82625)"/>
<path d="M123.495 344.681C123.589 344.735 123.67 344.789 123.744 344.843C123.816 344.9 123.877 344.95 123.917 344.999L122.435 345.859C122.398 345.8 122.331 345.736 122.24 345.665C122.149 345.593 122.043 345.519 121.919 345.45C121.641 345.29 121.35 345.184 121.044 345.134C120.738 345.085 120.432 345.088 120.127 345.147C119.818 345.206 119.522 345.317 119.236 345.485L115.769 347.499L114.083 346.525L120.238 342.947L121.895 343.904L120.844 344.516L120.879 344.535C121.345 344.373 121.803 344.303 122.262 344.328C122.718 344.35 123.13 344.469 123.495 344.681Z" fill="white"/>
<path d="M134.65 348.799L131.456 350.653L131.491 350.673C132.036 350.545 132.569 350.513 133.096 350.58C133.624 350.646 134.12 350.814 134.583 351.08C135.034 351.339 135.323 351.62 135.449 351.921C135.577 352.222 135.547 352.53 135.362 352.838C135.175 353.149 134.835 353.45 134.339 353.738L130.475 355.985L128.781 355.006L132.3 352.962C132.729 352.712 132.963 352.458 133.003 352.2C133.042 351.941 132.867 351.699 132.482 351.477C132.236 351.334 131.962 351.245 131.664 351.208C131.363 351.169 131.062 351.181 130.754 351.24C130.445 351.3 130.159 351.408 129.893 351.563L126.367 353.612L124.68 352.638L132.966 347.823L134.65 348.799Z" fill="white"/>
<path d="M127.282 346.866C127.844 347.192 128.227 347.534 128.431 347.892C128.634 348.252 128.675 348.602 128.552 348.942C128.429 349.283 128.158 349.588 127.736 349.862L127.697 349.887L126.123 348.979L126.17 348.947C126.412 348.75 126.528 348.533 126.523 348.299C126.518 348.065 126.34 347.848 125.99 347.645C125.716 347.488 125.403 347.394 125.048 347.364C124.696 347.337 124.323 347.372 123.931 347.473C123.539 347.574 123.15 347.737 122.757 347.963C122.348 348.2 122.065 348.429 121.892 348.659C121.722 348.886 121.663 349.1 121.717 349.302C121.774 349.505 121.939 349.687 122.215 349.845C122.555 350.042 122.92 350.143 123.317 350.153C123.712 350.163 124.091 350.091 124.456 349.943L124.518 349.919L126.089 350.826L126.054 350.846C125.581 351.09 125.048 351.248 124.456 351.319C123.865 351.388 123.26 351.369 122.642 351.253C122.02 351.137 121.438 350.92 120.886 350.602C120.257 350.239 119.845 349.85 119.646 349.436C119.448 349.019 119.466 348.6 119.697 348.175C119.929 347.754 120.373 347.349 121.031 346.967C121.697 346.58 122.388 346.324 123.115 346.193C123.842 346.062 124.562 346.05 125.278 346.163C126 346.277 126.663 346.511 127.282 346.866Z" fill="white"/>
<path d="M118.748 339.618L113.37 346.111L111.533 345.05L112.916 343.522L109.967 341.82L107.331 342.624L105.499 341.566L116.691 338.43L118.235 339.322L118.748 339.618ZM111.671 341.3L113.809 342.535L116.129 339.971L116.095 339.951L111.671 341.3Z" fill="white"/>
<path d="M139.372 353.082C139.118 352.936 138.992 352.761 138.99 352.559C138.99 352.357 139.108 352.187 139.345 352.049C139.587 351.908 139.88 351.841 140.225 351.841C140.573 351.844 140.871 351.918 141.125 352.063C141.379 352.211 141.508 352.384 141.51 352.584C141.512 352.783 141.394 352.951 141.152 353.092C140.916 353.23 140.622 353.299 140.275 353.301C139.929 353.301 139.629 353.23 139.372 353.082Z" fill="white"/>
<path d="M144.206 355.042L142.702 355.918L143.836 356.571L142.571 357.306L141.437 356.653L138.451 358.389C138.165 358.554 138.029 358.709 138.046 358.85C138.064 358.99 138.197 359.133 138.453 359.281C138.53 359.326 138.599 359.363 138.665 359.392C138.729 359.422 138.789 359.449 138.848 359.474L137.617 360.189C137.509 360.144 137.381 360.085 137.23 360.014C137.08 359.945 136.917 359.856 136.739 359.755C136.054 359.36 135.689 358.983 135.645 358.623C135.603 358.265 135.909 357.893 136.567 357.511L139.735 355.669L138.875 355.171L140.14 354.436L141 354.934L142.505 354.059L144.206 355.042Z" fill="white"/>
<path d="M154.192 362.403C154.754 362.728 155.136 363.071 155.341 363.429C155.543 363.789 155.582 364.139 155.462 364.479C155.341 364.82 155.067 365.125 154.645 365.399L154.606 365.424L153.033 364.516L153.077 364.482C153.319 364.284 153.437 364.067 153.432 363.836C153.427 363.601 153.25 363.384 152.897 363.182C152.626 363.024 152.313 362.931 151.958 362.901C151.605 362.874 151.233 362.909 150.841 363.007C150.449 363.108 150.059 363.271 149.667 363.498C149.258 363.735 148.974 363.964 148.801 364.193C148.631 364.42 148.572 364.635 148.626 364.837C148.683 365.039 148.848 365.221 149.124 365.379C149.465 365.577 149.83 365.678 150.227 365.688C150.621 365.697 151.001 365.626 151.366 365.475L151.43 365.453L153.001 366.361L152.966 366.38C152.493 366.625 151.96 366.782 151.368 366.854C150.777 366.923 150.172 366.903 149.553 366.787C148.932 366.671 148.35 366.454 147.798 366.136C147.169 365.774 146.757 365.384 146.557 364.97C146.36 364.553 146.377 364.134 146.609 363.71C146.841 363.288 147.285 362.884 147.943 362.502C148.609 362.115 149.299 361.858 150.027 361.727C150.754 361.594 151.474 361.584 152.189 361.698C152.907 361.811 153.575 362.045 154.192 362.403Z" fill="white"/>
<path d="M147.426 362.07L146.903 362.374L142.64 359.913C142.336 360.098 142.127 360.285 142.006 360.477C141.878 360.682 141.858 360.884 141.942 361.082C142.026 361.279 142.213 361.461 142.504 361.629C142.736 361.762 142.973 361.858 143.214 361.913C143.456 361.969 143.688 361.996 143.907 361.994C144.124 361.991 144.312 361.969 144.465 361.922L144.509 361.908L146.057 362.803L145.976 362.83C145.705 362.933 145.384 363.015 145.022 363.071C144.657 363.126 144.265 363.143 143.846 363.123C143.424 363.104 142.992 363.03 142.546 362.906C142.102 362.783 141.658 362.593 141.215 362.337C140.583 361.972 140.169 361.585 139.972 361.17C139.774 360.759 139.794 360.342 140.024 359.923C140.255 359.501 140.699 359.101 141.353 358.722C142.013 358.337 142.704 358.078 143.431 357.943C144.159 357.807 144.876 357.79 145.582 357.893C146.289 357.997 146.945 358.224 147.549 358.574C148.156 358.924 148.55 359.301 148.738 359.701C148.923 360.103 148.906 360.509 148.684 360.919C148.469 361.326 148.047 361.708 147.426 362.07ZM143.722 359.304L146.346 360.818C146.533 360.68 146.671 360.544 146.758 360.408C146.891 360.201 146.918 360.006 146.842 359.821C146.765 359.637 146.597 359.469 146.336 359.316C146.072 359.163 145.779 359.067 145.448 359.023C145.123 358.978 144.778 358.995 144.42 359.072C144.186 359.121 143.954 359.2 143.722 359.304Z" fill="white"/>
<path d="M131.583 356.626L137.738 353.05L139.432 354.027L133.274 357.605L131.583 356.626Z" fill="white"/>
<path d="M161.351 364.938L159.847 365.813L160.981 366.467L159.716 367.202L158.582 366.548L155.596 368.284C155.309 368.449 155.174 368.605 155.191 368.745C155.208 368.886 155.342 369.029 155.596 369.177C155.672 369.221 155.743 369.258 155.808 369.288C155.872 369.317 155.931 369.344 155.99 369.369L154.76 370.084C154.651 370.04 154.523 369.981 154.372 369.909C154.222 369.838 154.057 369.751 153.882 369.65C153.196 369.253 152.831 368.876 152.787 368.518C152.743 368.158 153.051 367.788 153.709 367.406L156.878 365.564L156.017 365.066L157.282 364.331L158.143 364.829L159.647 363.954L161.351 364.938Z" fill="white"/>
<path d="M106.727 321.833C109.978 323.686 109.995 326.688 106.765 328.54L91.9375 337.04C88.7071 338.893 83.4513 338.893 80.2002 337.04L65.2761 328.54C62.025 326.688 62.008 323.686 65.2383 321.833L80.0659 313.333C83.2962 311.481 88.5521 311.481 91.8032 313.333L106.727 321.833Z" fill="#F3F5F6"/>
<path d="M85.4969 334.652L83.1827 327.841C83.1447 327.775 82.8413 327.206 82.2153 326.844C81.5893 326.483 80.8116 326.319 80.7168 326.308C82.0446 326.461 83.4103 326.395 84.6812 326.121L92.1738 324.446L86.9954 334.685C86.7678 335.123 85.6676 335.101 85.4969 334.652Z" fill="#30D8D8"/>
<path d="M92.2298 319.266L70.5487 323.394C69.0312 323.679 69.1451 324.949 70.7194 325.135L90.6744 327.457L94.2216 320.372C94.563 319.671 93.4249 319.036 92.2298 319.266Z" fill="#382CDD"/>
<g style="mix-blend-mode:multiply">
<path d="M90.6477 327.463L81.3824 326.366C82.4966 326.433 83.6218 326.35 84.6811 326.122L92.1737 324.446L90.6477 327.463Z" fill="#526868"/>
</g>
<path d="M471.134 229.66C477.026 233.05 477.038 241.546 471.156 244.952L275.813 358.083C270.355 361.244 263.625 361.253 258.158 358.108L61.4337 244.915C55.5424 241.525 55.5306 233.029 61.4124 229.623L256.755 116.499C262.213 113.338 268.943 113.329 274.409 116.474L471.134 229.66Z" fill="#42424B"/>
<path d="M471.709 233.838C478.326 230.006 478.312 220.448 471.685 216.634L274.96 103.449C269.151 100.107 262.001 100.117 256.202 103.475L60.8593 216.599C54.2423 220.431 54.2556 229.989 60.8833 233.803L257.608 346.995C263.417 350.337 270.567 350.327 276.367 346.968L471.709 233.838Z" fill="#27272E" stroke="#66666F" stroke-width="2.20715"/>
<path d="M444.664 201.584L279.571 296.722C271.91 301.137 262.481 301.15 254.808 296.757L88.5773 201.584L261.648 101.854C264.369 100.286 267.718 100.282 270.443 101.842L444.664 201.584Z" fill="#16161C"/>
<path opacity="0.32" d="M438.746 177.368C442.68 179.627 442.688 185.298 438.761 187.568L269.778 285.234C267.961 286.284 265.722 286.287 263.902 285.242L93.7587 187.543C89.8252 185.284 89.8173 179.613 93.7445 177.343L262.728 79.6832C264.545 78.6331 266.783 78.6299 268.603 79.6749L438.746 177.368Z" fill="url(#paint1_linear_113_82625)"/>
<path d="M114.447 241.937C114.328 242.205 114.087 242.445 113.722 242.657C113.224 242.945 112.686 243.123 112.102 243.194C111.515 243.266 110.908 243.234 110.287 243.098C109.663 242.962 109.054 242.721 108.457 242.376L105.636 240.748L104.763 240.245L113.049 235.429L114.792 236.435L116.676 237.523C117.201 237.826 117.569 238.137 117.783 238.452C117.995 238.77 118.049 239.079 117.948 239.377C117.847 239.675 117.583 239.947 117.157 240.193C116.844 240.376 116.496 240.497 116.099 240.568C115.704 240.637 115.3 240.652 114.888 240.608C114.476 240.566 114.099 240.469 113.751 240.317L113.717 240.336C114.079 240.575 114.319 240.837 114.439 241.115C114.565 241.397 114.568 241.67 114.447 241.937ZM112.04 241.567L112.053 241.559C112.311 241.409 112.469 241.246 112.521 241.076C112.575 240.903 112.528 240.726 112.383 240.538C112.237 240.349 111.996 240.156 111.651 239.959L110.188 239.113L107.799 240.501L109.303 241.369C109.801 241.655 110.282 241.818 110.753 241.853C111.226 241.885 111.653 241.791 112.04 241.567ZM113.5 237.187L111.365 238.43L112.62 239.155C113.086 239.424 113.544 239.577 113.991 239.609C114.437 239.643 114.834 239.562 115.179 239.36L115.189 239.352C115.517 239.163 115.66 238.948 115.611 238.716C115.564 238.482 115.337 238.25 114.933 238.016L113.5 237.187Z" fill="#42424B"/>
<path d="M124.069 244.259L117.914 247.834L116.227 246.86L117.243 246.271L117.201 246.246C116.688 246.36 116.171 246.387 115.65 246.323C115.132 246.259 114.639 246.091 114.168 245.817C113.717 245.558 113.424 245.282 113.29 244.989C113.155 244.698 113.179 244.402 113.357 244.106C113.537 243.808 113.865 243.522 114.343 243.245L118.316 240.937L120.002 241.911L116.38 244.017C115.978 244.251 115.759 244.488 115.729 244.727C115.7 244.967 115.872 245.196 116.249 245.413C116.503 245.558 116.78 245.652 117.078 245.692C117.376 245.729 117.677 245.719 117.985 245.659C118.294 245.6 118.58 245.494 118.844 245.339L122.38 243.285L124.069 244.259Z" fill="#42424B"/>
<path d="M131.873 246.298L123.587 251.111L121.901 250.137L130.186 245.321L131.873 246.298Z" fill="#42424B"/>
<path d="M126.831 244.941C126.577 244.796 126.448 244.621 126.448 244.418C126.446 244.216 126.567 244.046 126.803 243.908C127.045 243.767 127.336 243.698 127.684 243.701C128.029 243.703 128.33 243.777 128.584 243.923C128.838 244.071 128.966 244.243 128.968 244.443C128.971 244.643 128.853 244.81 128.611 244.951C128.374 245.089 128.081 245.158 127.733 245.161C127.385 245.161 127.085 245.089 126.831 244.941Z" fill="#42424B"/>
<path d="M137.249 249.4L138.935 250.374L130.65 255.19L128.963 254.216L130.014 253.607L129.979 253.587C129.447 253.705 128.909 253.73 128.374 253.658C127.837 253.589 127.343 253.427 126.897 253.168C126.377 252.867 126.056 252.534 125.935 252.167C125.815 251.799 125.891 251.417 126.165 251.022C126.438 250.625 126.907 250.236 127.573 249.849C128.248 249.457 128.924 249.18 129.607 249.023C130.285 248.862 130.944 248.818 131.575 248.889C132.206 248.961 132.781 249.143 133.298 249.442C133.74 249.698 134.021 249.982 134.142 250.297C134.26 250.613 134.218 250.926 134.016 251.239L134.051 251.259L137.249 249.4ZM132.041 252.428C132.416 252.211 132.675 251.992 132.832 251.767C132.988 251.543 133.037 251.328 132.978 251.124C132.919 250.919 132.753 250.739 132.48 250.581C132.199 250.418 131.883 250.32 131.535 250.288C131.185 250.253 130.818 250.283 130.438 250.374C130.056 250.468 129.679 250.623 129.304 250.84C128.926 251.059 128.66 251.279 128.5 251.498C128.337 251.72 128.285 251.932 128.345 252.137C128.401 252.342 128.571 252.524 128.853 252.687C129.126 252.845 129.442 252.941 129.797 252.975C130.152 253.01 130.522 252.98 130.907 252.889C131.291 252.798 131.669 252.642 132.041 252.428Z" fill="#42424B"/>
<path d="M119.038 248.485L125.193 244.908L126.887 245.886L120.732 249.464L119.038 248.485Z" fill="#42424B"/>
<path d="M106.727 221.776C109.978 223.629 109.995 226.631 106.765 228.483L91.9375 236.983C88.7071 238.836 83.4513 238.836 80.2002 236.983L65.2761 228.483C62.025 226.631 62.008 223.629 65.2383 221.776L80.0659 213.276C83.2962 211.424 88.5521 211.424 91.8032 213.276L106.727 221.776Z" fill="#16161C"/>
<g clip-path="url(#clip0_113_82625)">
<g clip-path="url(#clip1_113_82625)">
<path d="M80.9694 230.32C81.9036 228.358 84.09 222.529 79.737 218.478C79.5383 218.272 79.0414 218.237 78.7432 218.409L75.563 220.245C75.1654 220.475 75.0064 220.796 75.1058 221.106C75.4636 222.184 76.0797 224.858 74.8673 227.302C74.7679 227.474 74.8474 227.658 75.066 227.784L79.7768 230.504C80.1544 230.722 80.8303 230.63 80.9694 230.32Z" fill="#42424B"/>
<path d="M75.3637 227.083C78.7626 226.544 88.8599 225.282 95.8763 227.795C96.2142 227.921 96.2739 228.208 95.9956 228.368L92.8153 230.204C92.4178 230.434 91.8613 230.526 91.3246 230.468C89.4761 230.273 84.8846 229.918 80.7105 230.583C80.3328 230.64 79.9154 230.583 79.6372 230.422L75.0457 227.772C74.6481 227.542 74.827 227.164 75.3637 227.083Z" fill="#42424B"/>
<path d="M82.2085 226.368C81.9398 228.074 81.3499 229.519 80.9686 230.32C80.9025 230.467 80.7153 230.565 80.4966 230.604C80.1821 230.616 79.8634 230.554 79.6369 230.423L75.0566 227.779C74.9377 227.708 74.8615 227.62 74.8348 227.527C74.7949 227.335 74.9948 227.139 75.3634 227.084C76.7508 226.864 79.2542 226.523 82.2085 226.368Z" fill="#27272E"/>
<ellipse rx="4.57953" ry="4.57953" transform="matrix(0.866044 0.499967 -0.866044 0.499967 90.8636 221.599)" fill="#42424B"/>
</g>
</g>
<path d="M356.371 66.5295C362.26 69.9196 362.272 78.4137 356.392 81.8202L164.121 193.213C158.662 196.376 151.929 196.385 146.461 193.238L60.6914 143.867C54.802 140.477 54.7901 131.983 60.67 128.577L252.941 17.1839C258.401 14.0209 265.133 14.0115 270.601 17.1591L356.371 66.5295Z" fill="#42424B"/>
<path d="M356.945 70.7029C363.56 66.8705 363.547 57.3147 356.921 53.5008L271.152 4.13043C265.342 0.786032 258.189 0.796054 252.388 4.15672L60.1167 115.549C53.5018 119.382 53.5152 128.938 60.1408 132.751L145.91 182.122C151.72 185.466 158.874 185.456 164.674 182.096L356.945 70.7029Z" fill="#27272E" stroke="#66666F" stroke-width="2.20715"/>
<path d="M115.852 136.304C116.493 136.674 116.949 137.054 117.218 137.443C117.484 137.83 117.568 138.205 117.467 138.565C117.368 138.928 117.09 139.258 116.631 139.554L116.532 139.616L114.885 138.664L114.942 138.617C115.134 138.474 115.238 138.319 115.253 138.151C115.27 137.983 115.211 137.811 115.075 137.636C114.942 137.461 114.727 137.288 114.439 137.123C114.141 136.95 113.842 136.827 113.541 136.753C113.241 136.676 112.959 136.652 112.696 136.674C112.429 136.696 112.2 136.763 112.005 136.876C111.734 137.034 111.635 137.221 111.702 137.441C111.766 137.663 111.99 137.939 112.37 138.272L113.078 138.886C113.778 139.49 114.146 140.02 114.183 140.471C114.215 140.923 113.906 141.337 113.255 141.717C112.718 142.03 112.121 142.22 111.468 142.291C110.812 142.363 110.124 142.316 109.411 142.148C108.694 141.98 107.986 141.694 107.286 141.29C106.627 140.91 106.149 140.523 105.85 140.126C105.552 139.729 105.444 139.345 105.525 138.972C105.604 138.597 105.88 138.255 106.358 137.941L106.445 137.887L108.092 138.839L108.035 138.876C107.86 139.024 107.774 139.187 107.774 139.367C107.774 139.547 107.858 139.734 108.02 139.929C108.186 140.124 108.425 140.311 108.743 140.494C109.066 140.681 109.386 140.817 109.705 140.9C110.025 140.984 110.328 141.019 110.612 140.999C110.898 140.979 111.147 140.91 111.359 140.787C111.643 140.622 111.751 140.429 111.69 140.21C111.628 139.991 111.389 139.702 110.974 139.342L110.274 138.731C109.616 138.163 109.273 137.646 109.246 137.175C109.219 136.706 109.52 136.289 110.143 135.927C110.659 135.631 111.236 135.456 111.884 135.397C112.533 135.338 113.204 135.384 113.892 135.537C114.582 135.695 115.235 135.947 115.852 136.304Z" fill="#42424B"/>
<path d="M123.587 143.405L117.433 146.98L115.746 146.006L116.762 145.417L116.72 145.392C116.207 145.508 115.692 145.535 115.172 145.469C114.654 145.402 114.158 145.234 113.69 144.963C113.238 144.704 112.945 144.428 112.812 144.135C112.676 143.844 112.698 143.548 112.878 143.252C113.058 142.956 113.386 142.667 113.865 142.391L117.837 140.083L119.524 141.057L115.901 143.163C115.499 143.397 115.282 143.634 115.25 143.873C115.218 144.112 115.393 144.342 115.768 144.559C116.022 144.707 116.301 144.798 116.597 144.837C116.895 144.874 117.198 144.864 117.504 144.805C117.812 144.746 118.096 144.638 118.36 144.485L121.896 142.431L123.587 143.405Z" fill="#42424B"/>
<path d="M142.714 161.576L148.869 158.001L150.561 158.977L144.406 162.555L142.714 161.576Z" fill="#42424B"/>
<path d="M160.528 168.157L160.005 168.461L155.742 166C155.438 166.185 155.229 166.372 155.108 166.564C154.98 166.769 154.96 166.971 155.041 167.169C155.125 167.366 155.312 167.548 155.606 167.718C155.838 167.852 156.074 167.948 156.316 168.002C156.558 168.059 156.79 168.086 157.007 168.081C157.226 168.078 157.411 168.056 157.566 168.012L157.611 167.997L159.159 168.892L159.078 168.919C158.807 169.023 158.486 169.104 158.124 169.161C157.759 169.215 157.367 169.232 156.947 169.213C156.526 169.193 156.094 169.119 155.648 168.996C155.204 168.872 154.76 168.683 154.316 168.426C153.685 168.061 153.271 167.674 153.073 167.26C152.876 166.848 152.893 166.431 153.125 166.012C153.357 165.59 153.801 165.191 154.454 164.811C155.115 164.427 155.806 164.168 156.533 164.032C157.258 163.894 157.978 163.879 158.683 163.983C159.391 164.086 160.047 164.313 160.651 164.663C161.255 165.013 161.652 165.391 161.84 165.79C162.024 166.192 162.007 166.599 161.785 167.008C161.568 167.413 161.149 167.797 160.528 168.157ZM156.824 165.393L159.448 166.907C159.635 166.769 159.773 166.633 159.859 166.498C159.993 166.291 160.02 166.096 159.943 165.911C159.867 165.726 159.699 165.558 159.435 165.405C159.174 165.255 158.881 165.156 158.55 165.114C158.225 165.07 157.879 165.087 157.522 165.164C157.288 165.211 157.056 165.287 156.824 165.393Z" fill="#42424B"/>
<path d="M154.307 160.994C154.855 161.31 155.232 161.63 155.441 161.951C155.651 162.274 155.71 162.58 155.621 162.871C155.533 163.162 155.313 163.413 154.965 163.63L154.909 163.662L153.355 162.765L153.395 162.735C153.585 162.592 153.664 162.427 153.636 162.237C153.604 162.047 153.432 161.862 153.121 161.684C152.926 161.574 152.734 161.492 152.537 161.44C152.339 161.391 152.154 161.371 151.982 161.381C151.809 161.391 151.656 161.435 151.523 161.514C151.36 161.608 151.291 161.721 151.306 161.855C151.323 161.988 151.454 162.165 151.701 162.382L152.529 163.12C153.047 163.573 153.313 163.96 153.326 164.279C153.34 164.597 153.123 164.888 152.672 165.151C152.263 165.388 151.799 165.526 151.269 165.566C150.739 165.605 150.187 165.556 149.612 165.42C149.04 165.282 148.488 165.06 147.955 164.752C147.385 164.424 146.981 164.094 146.742 163.766C146.505 163.438 146.419 163.125 146.488 162.826C146.559 162.525 146.762 162.252 147.102 162L147.146 161.966L148.793 162.917L148.754 162.954C148.567 163.125 148.5 163.305 148.554 163.492C148.611 163.679 148.803 163.869 149.139 164.062C149.353 164.187 149.563 164.279 149.765 164.335C149.967 164.392 150.157 164.417 150.337 164.407C150.517 164.399 150.67 164.357 150.806 164.279C150.976 164.18 151.047 164.069 151.028 163.941C151.005 163.815 150.88 163.645 150.638 163.43L149.809 162.693C149.331 162.274 149.089 161.892 149.084 161.541C149.077 161.191 149.306 160.883 149.765 160.617C150.164 160.385 150.611 160.247 151.111 160.205C151.612 160.163 152.137 160.207 152.687 160.341C153.244 160.474 153.784 160.691 154.307 160.994Z" fill="#42424B"/>
<path d="M148.251 157.643L139.968 159.993L138.059 158.891L142.071 154.075L143.881 155.121L140.5 158.585L140.537 158.605L146.488 156.625L148.251 157.643Z" fill="#42424B"/>
<path d="M141.538 153.621C141.632 153.675 141.714 153.729 141.787 153.783C141.859 153.84 141.918 153.89 141.96 153.936L140.478 154.797C140.441 154.738 140.375 154.674 140.283 154.602C140.195 154.531 140.086 154.457 139.963 154.388C139.687 154.227 139.393 154.121 139.087 154.072C138.782 154.023 138.476 154.025 138.168 154.082C137.859 154.141 137.563 154.252 137.277 154.42L133.81 156.434L132.124 155.46L138.279 151.882L139.938 152.842L138.888 153.453L138.922 153.473C139.388 153.31 139.844 153.241 140.306 153.266C140.762 153.293 141.171 153.409 141.538 153.621Z" fill="#42424B"/>
<path d="M134.457 153.107L133.935 153.41L129.669 150.947C129.365 151.132 129.156 151.319 129.035 151.511C128.907 151.716 128.885 151.918 128.968 152.116C129.052 152.313 129.24 152.495 129.533 152.665C129.762 152.799 130.002 152.895 130.243 152.949C130.485 153.003 130.714 153.03 130.934 153.028C131.153 153.025 131.338 153.003 131.491 152.956L131.538 152.944L133.086 153.837L133.007 153.864C132.734 153.967 132.416 154.049 132.051 154.103C131.686 154.157 131.294 154.177 130.875 154.155C130.453 154.135 130.021 154.061 129.577 153.938C129.131 153.815 128.69 153.625 128.246 153.368C127.612 153.003 127.198 152.614 127.003 152.202C126.808 151.79 126.823 151.373 127.055 150.954C127.289 150.535 127.731 150.133 128.384 149.753C129.045 149.369 129.735 149.112 130.463 148.974C131.19 148.838 131.908 148.821 132.613 148.925C133.321 149.028 133.977 149.255 134.583 149.605C135.187 149.955 135.582 150.33 135.769 150.732C135.957 151.137 135.937 151.541 135.715 151.95C135.498 152.362 135.079 152.747 134.457 153.107ZM130.751 150.34L133.377 151.857C133.565 151.719 133.7 151.583 133.787 151.447C133.92 151.24 133.947 151.045 133.871 150.86C133.794 150.675 133.624 150.505 133.363 150.355C133.099 150.202 132.805 150.106 132.477 150.064C132.149 150.02 131.807 150.037 131.449 150.113C131.217 150.158 130.983 150.237 130.751 150.34Z" fill="#42424B"/>
<path d="M129.175 148.2C128.901 148.597 128.43 148.989 127.765 149.376C127.092 149.768 126.418 150.039 125.738 150.202C125.057 150.362 124.401 150.409 123.77 150.342C123.141 150.276 122.564 150.093 122.044 149.793C121.751 149.622 121.526 149.44 121.373 149.24C121.218 149.04 121.134 148.836 121.124 148.629C121.114 148.419 121.173 148.212 121.302 148.002L121.267 147.983L118.207 149.76L116.52 148.786L124.685 144.042L126.371 145.016L125.299 145.64L125.338 145.662C125.698 145.583 126.061 145.544 126.423 145.544C126.786 145.544 127.138 145.588 127.479 145.675C127.819 145.761 128.137 145.887 128.428 146.057C128.953 146.36 129.274 146.693 129.4 147.06C129.525 147.423 129.449 147.803 129.175 148.2ZM126.036 148.385C126.418 148.163 126.682 147.943 126.842 147.721C127 147.499 127.05 147.29 126.99 147.085C126.931 146.883 126.764 146.703 126.485 146.543C126.214 146.385 125.898 146.289 125.543 146.254C125.188 146.22 124.816 146.247 124.428 146.34C124.041 146.432 123.662 146.584 123.289 146.801C122.917 147.018 122.655 147.238 122.503 147.462C122.35 147.689 122.3 147.904 122.36 148.108C122.416 148.313 122.584 148.496 122.858 148.653C123.139 148.816 123.454 148.912 123.809 148.944C124.162 148.976 124.527 148.944 124.909 148.851C125.287 148.754 125.664 148.599 126.036 148.385Z" fill="#42424B"/>
<path d="M150.505 158.033C150.251 157.888 150.122 157.713 150.122 157.511C150.122 157.309 150.241 157.138 150.478 157C150.719 156.86 151.013 156.793 151.358 156.793C151.703 156.796 152.004 156.87 152.258 157.015C152.512 157.163 152.64 157.336 152.643 157.535C152.645 157.735 152.527 157.903 152.285 158.043C152.048 158.181 151.755 158.25 151.407 158.253C151.062 158.253 150.759 158.181 150.505 158.033Z" fill="#42424B"/>
<path d="M106.727 120.983C109.978 122.836 109.995 125.838 106.765 127.69L91.9373 136.19C88.707 138.043 83.4512 138.043 80.2 136.19L65.276 127.69C62.0249 125.838 62.0078 122.836 65.2381 120.983L80.0658 112.483C83.2961 110.631 88.5519 110.631 91.803 112.483L106.727 120.983Z" fill="#16161C"/>
<path d="M89.4052 123.38L84.3075 126.323C84.0517 126.471 83.5858 126.413 83.3156 126.215C81.6945 125.026 81.5213 123.491 83.0012 122.637C84.4995 121.772 87.1394 121.882 89.199 122.818C89.5606 122.964 89.6427 123.243 89.4052 123.38Z" fill="#42424B"/>
<path d="M80.6111 117.505C81.6151 116.925 83.0785 116.699 84.4498 116.911L87.4898 117.382L77.8749 122.933L72.6187 122.119L80.6111 117.505Z" fill="#42424B"/>
<path d="M90.5232 130.729C89.5192 131.309 88.0558 131.535 86.6844 131.322L83.6445 130.851L93.2594 125.301L98.5155 126.115L90.5232 130.729Z" fill="#42424B"/>
<path d="M72.7661 122.922L78.036 123.765L81.447 131.232L78.3758 130.741C77.0143 130.523 75.9556 129.904 75.5953 129.115L72.7661 122.922Z" fill="#27272E"/>
<path d="M98.3691 125.311L93.0993 124.468L89.6883 117.001L92.7595 117.492C94.121 117.71 95.1797 118.329 95.5399 119.117L98.3691 125.311Z" fill="#27272E"/>
<path d="M471.879 137.894C477.769 141.284 477.781 149.778 471.901 153.184L279.629 264.577C274.17 267.74 267.438 267.749 261.969 264.602L176.2 215.231C170.31 211.841 170.298 203.347 176.178 199.941L368.449 88.548C373.909 85.385 380.641 85.3756 386.11 88.5233L471.879 137.894Z" fill="#42424B"/>
<path d="M472.454 142.067C479.069 138.235 479.056 128.679 472.43 124.865L386.66 75.4947C380.85 72.1503 373.697 72.1603 367.896 75.5209L175.625 186.914C169.01 190.746 169.024 200.302 175.649 204.116L261.419 253.486C267.229 256.83 274.382 256.82 280.183 253.46L472.454 142.067Z" fill="#27272E" stroke="#66666F" stroke-width="2.20715"/>
<path d="M240.783 215.288C241.188 215.522 241.456 215.776 241.589 216.052C241.72 216.328 241.718 216.604 241.575 216.883C241.434 217.162 241.155 217.423 240.739 217.665L236.53 220.111L234.843 219.137L238.626 216.937C238.981 216.73 239.168 216.523 239.188 216.311C239.205 216.099 239.05 215.899 238.724 215.712C238.512 215.589 238.278 215.51 238.019 215.473C237.762 215.438 237.504 215.445 237.242 215.492C236.981 215.542 236.734 215.633 236.507 215.766L232.769 217.938L231.147 217.001L234.981 214.772C235.314 214.578 235.484 214.375 235.491 214.166C235.499 213.954 235.348 213.761 235.035 213.579C234.823 213.458 234.586 213.379 234.323 213.345C234.059 213.31 233.795 213.317 233.529 213.369C233.26 213.419 233.016 213.512 232.784 213.645L229.068 215.803L227.381 214.829L233.536 211.251L235.223 212.225L234.189 212.827L234.224 212.846C234.702 212.716 235.2 212.676 235.718 212.731C236.234 212.785 236.702 212.933 237.116 213.172C237.405 213.337 237.617 213.517 237.748 213.71C237.878 213.899 237.933 214.097 237.903 214.296C237.876 214.499 237.758 214.696 237.553 214.891L237.587 214.91C237.94 214.814 238.303 214.762 238.68 214.76C239.057 214.758 239.424 214.799 239.784 214.888C240.149 214.982 240.48 215.113 240.783 215.288Z" fill="#42424B"/>
<path d="M232.048 207.924L226.67 214.417L224.833 213.357L226.216 211.828L223.267 210.126L220.631 210.93L218.799 209.872L229.991 206.736L231.535 207.628L232.048 207.924ZM224.971 209.606L227.109 210.841L229.429 208.277L229.394 208.257L224.971 209.606Z" fill="#42424B"/>
<path d="M255.311 222.912C255.057 222.764 254.929 222.592 254.926 222.387C254.926 222.185 255.045 222.015 255.281 221.877C255.523 221.736 255.817 221.669 256.162 221.669C256.509 221.672 256.808 221.746 257.064 221.894C257.318 222.039 257.446 222.214 257.449 222.414C257.451 222.614 257.333 222.782 257.091 222.922C256.855 223.06 256.561 223.129 256.214 223.132C255.866 223.129 255.565 223.058 255.311 222.912Z" fill="#42424B"/>
<path d="M264.712 229.252L266.497 230.283L258.106 232.694C257.46 232.882 256.875 232.985 256.35 233.01C255.825 233.032 255.332 232.978 254.873 232.847C254.412 232.717 253.956 232.519 253.495 232.255C253.329 232.159 253.179 232.063 253.038 231.967C252.9 231.868 252.789 231.784 252.708 231.715L253.956 230.99C254.003 231.03 254.069 231.084 254.153 231.148C254.237 231.212 254.343 231.281 254.464 231.353C254.718 231.501 254.962 231.592 255.191 231.627C255.423 231.661 255.677 231.641 255.956 231.562L256.227 231.486L260.199 226.648L262.054 227.718L258.55 231.269L258.599 231.296L264.712 229.252Z" fill="#42424B"/>
<path d="M261.241 224.634C261.394 224.723 261.544 224.816 261.687 224.915C261.83 225.014 261.944 225.098 262.02 225.164L260.911 225.808C260.861 225.771 260.8 225.729 260.731 225.68C260.659 225.63 260.585 225.586 260.509 225.541C260.233 225.381 259.969 225.297 259.722 225.29C259.473 225.283 259.241 225.342 259.022 225.47L258.593 225.719L259.823 226.429L258.558 227.164L257.367 226.476L252.475 229.319L250.788 228.345L255.681 225.502L254.837 225.014L256.102 224.279L256.946 224.767L257.434 224.484C258.038 224.131 258.64 223.963 259.241 223.978C259.843 223.993 260.511 224.21 261.241 224.634Z" fill="#42424B"/>
<path d="M247.519 226.453L253.674 222.877L255.368 223.856L249.213 227.432L247.519 226.453Z" fill="#42424B"/>
<path d="M254.636 220.963L246.35 225.779L244.664 224.805L252.949 219.989L254.636 220.963Z" fill="#42424B"/>
<path d="M248.244 221.312C247.968 221.707 247.499 222.099 246.831 222.486C246.158 222.878 245.487 223.149 244.806 223.312C244.126 223.472 243.47 223.519 242.839 223.455C242.207 223.388 241.633 223.203 241.112 222.905C240.819 222.735 240.595 222.552 240.442 222.35C240.286 222.15 240.205 221.946 240.193 221.739C240.183 221.529 240.242 221.322 240.37 221.112L240.336 221.093L237.276 222.87L235.589 221.896L243.753 217.152L245.44 218.126L244.367 218.75L244.409 218.775C244.769 218.696 245.129 218.654 245.494 218.656C245.857 218.656 246.209 218.701 246.547 218.787C246.887 218.873 247.206 218.999 247.497 219.169C248.022 219.473 248.345 219.808 248.468 220.173C248.594 220.535 248.517 220.915 248.244 221.312ZM245.105 221.497C245.487 221.275 245.753 221.056 245.911 220.834C246.069 220.612 246.118 220.4 246.059 220.198C246 219.995 245.83 219.813 245.553 219.655C245.28 219.497 244.964 219.401 244.609 219.367C244.254 219.332 243.882 219.359 243.494 219.453C243.105 219.544 242.728 219.697 242.355 219.911C241.983 220.128 241.722 220.348 241.569 220.572C241.416 220.799 241.366 221.014 241.426 221.218C241.482 221.423 241.65 221.606 241.924 221.763C242.205 221.926 242.52 222.022 242.873 222.054C243.226 222.086 243.591 222.057 243.975 221.961C244.355 221.867 244.732 221.712 245.105 221.497Z" fill="#42424B"/>
<path d="M222.971 192.347C226.222 194.2 226.239 197.202 223.009 199.054L208.181 207.554C204.951 209.407 199.695 209.407 196.444 207.554L181.52 199.054C178.269 197.202 178.252 194.2 181.482 192.347L196.309 183.847C199.54 181.995 204.796 181.995 208.047 183.847L222.971 192.347Z" fill="#16161C"/>
<g clip-path="url(#clip2_113_82625)">
<path d="M205.04 199.601C205.14 199.663 205.201 199.735 205.212 199.813C205.234 199.913 205.173 200.018 205.04 200.102L202.667 201.48C202.433 201.619 202.05 201.619 201.811 201.48L199.42 200.102C199.193 199.968 199.187 199.757 199.404 199.618C199.409 199.612 199.415 199.612 199.42 199.607L200.06 199.235C200.293 199.096 200.677 199.096 200.91 199.235L201.777 199.735C202.016 199.874 202.4 199.874 202.628 199.735L203.511 199.223C203.745 199.084 204.128 199.084 204.367 199.223L205.04 199.601Z" fill="#27272E"/>
<path d="M205.04 199.579C205.151 199.646 205.212 199.729 205.218 199.813C205.201 199.735 205.146 199.662 205.046 199.601L204.384 199.218C204.145 199.079 203.762 199.079 203.528 199.218L202.644 199.729C202.411 199.863 202.027 199.863 201.794 199.729L200.927 199.229C200.693 199.096 200.31 199.096 200.076 199.229L199.437 199.601C199.432 199.607 199.426 199.607 199.42 199.612C199.437 199.601 199.454 199.59 199.476 199.579L200.521 198.973L201.827 198.212C202.061 198.078 202.444 198.078 202.678 198.212L203.995 198.973L205.04 199.579Z" fill="#42424B"/>
<path d="M207.308 194.527C207.547 194.666 207.547 194.888 207.313 195.021L202.672 197.717C202.439 197.85 202.055 197.856 201.816 197.717L197.186 195.043C196.947 194.905 196.953 194.682 197.18 194.549L201.822 191.853C202.055 191.714 202.439 191.714 202.678 191.853L207.308 194.527Z" fill="#42424B"/>
<path d="M205.023 189.474C205.262 189.613 205.262 189.835 205.029 189.969L203.962 190.591L202.655 191.347C202.422 191.486 202.038 191.486 201.799 191.347L200.504 190.597L200.143 190.391C200.376 190.474 200.688 190.458 200.893 190.336L201.772 189.824C202.005 189.685 202.389 189.685 202.628 189.824L203.495 190.324C203.734 190.463 204.117 190.463 204.351 190.324L204.99 189.952C205.223 189.819 205.223 189.596 204.984 189.457L202.594 188.079C202.544 188.051 202.489 188.029 202.433 188.012C202.505 188.029 202.572 188.057 202.633 188.09L205.023 189.474Z" fill="#42424B"/>
<path d="M204.984 189.463C205.223 189.602 205.223 189.824 204.99 189.958L204.351 190.33C204.117 190.469 203.734 190.469 203.495 190.33L202.628 189.83C202.389 189.691 202.005 189.691 201.772 189.83L200.893 190.336C200.688 190.452 200.376 190.469 200.143 190.386C200.104 190.374 200.071 190.358 200.037 190.336L199.37 189.952C199.131 189.813 199.131 189.591 199.365 189.457L201.738 188.079C201.922 187.973 202.205 187.951 202.427 188.012C202.489 188.029 202.539 188.051 202.589 188.079L204.984 189.463Z" fill="#27272E"/>
<path d="M212.227 191.67C212.466 191.809 212.466 192.031 212.232 192.164L209.904 193.52C209.67 193.659 209.287 193.659 209.048 193.52L203.967 190.591L205.034 189.969C205.268 189.835 205.268 189.613 205.029 189.474L202.639 188.096C202.578 188.062 202.511 188.034 202.439 188.018C202.211 187.951 201.933 187.973 201.749 188.084L199.376 189.463C199.143 189.602 199.143 189.824 199.382 189.958L200.049 190.341C200.082 190.358 200.115 190.374 200.154 190.391L200.515 190.597L195.446 193.543C195.213 193.676 194.829 193.682 194.596 193.543L192.183 192.153C191.944 192.014 191.95 191.792 192.178 191.658L201.727 186.106C201.961 185.967 202.344 185.967 202.583 186.106L212.227 191.67Z" fill="#42424B"/>
<path d="M212.238 197.367C212.477 197.506 212.477 197.728 212.244 197.862L202.689 203.414C202.455 203.548 202.072 203.553 201.833 203.414L192.272 197.9C192.033 197.762 192.039 197.539 192.267 197.406L194.601 196.05C194.835 195.916 195.218 195.916 195.452 196.05L200.51 198.968L199.465 199.574C199.448 199.585 199.426 199.596 199.409 199.607C199.193 199.746 199.198 199.957 199.426 200.09L201.816 201.469C202.055 201.608 202.439 201.608 202.672 201.469L205.045 200.09C205.179 200.013 205.24 199.907 205.218 199.801C205.212 199.718 205.151 199.635 205.04 199.568L203.989 198.962L209.059 196.016C209.292 195.877 209.676 195.877 209.909 196.016L212.238 197.367Z" fill="#42424B"/>
</g>
<defs>
<linearGradient id="paint0_linear_113_82625" x1="265.813" y1="300.892" x2="266.252" y2="384.78" gradientUnits="userSpaceOnUse">
<stop stop-color="#505056"/>
<stop offset="1" stop-color="#3B3A4D" stop-opacity="0"/>
</linearGradient>
<linearGradient id="paint1_linear_113_82625" x1="265.814" y1="203.042" x2="266.253" y2="286.93" gradientUnits="userSpaceOnUse">
<stop stop-color="#505056"/>
<stop offset="1" stop-color="#3B3A4D" stop-opacity="0"/>
</linearGradient>
<clipPath id="clip0_113_82625">
<rect width="24.5986" height="24.5986" rx="9.7313" transform="matrix(0.866044 0.499967 -0.866044 0.499967 86.1054 211.656)" fill="white"/>
</clipPath>
<clipPath id="clip1_113_82625">
<rect width="19.8985" height="19.9674" fill="white" transform="matrix(0.866044 0.499967 -0.866044 0.499967 86.0776 214.174)"/>
</clipPath>
<clipPath id="clip2_113_82625">
<rect width="20.4159" height="17.52" fill="white" transform="translate(192 186)"/>
</clipPath>
</defs>
</svg>
