<svg width="1440" height="892" viewBox="0 0 1440 892" fill="none" xmlns="http://www.w3.org/2000/svg">
<g clip-path="url(#clip0_101_26)">
<rect width="1440" height="892" fill="white"/>
<rect width="1440" height="1078" fill="#16161C"/>
<g clip-path="url(#clip1_101_26)">
<path d="M1061.3 650H1060.8L1061.3 647.5V645V647.4L1061.8 645L1061.3 647.4V650ZM1102.5 646.6L1101.7 641.7L1102.7 641.5L1103.6 646.4L1102.5 646.6ZM1143.5 635.8L1141.8 631.1L1142.7 630.8L1144.4 635.5L1143.5 635.8ZM1181.9 618L1179.4 613.7L1180.3 613.2L1182.8 617.5L1181.9 618ZM1216.7 593.8L1213.5 590L1214.3 589.4L1217.5 593.2L1216.7 593.8ZM1246.8 564L1243 560.8L1243.6 560L1247.4 563.2L1246.8 564ZM1271.3 529.4L1267 526.9L1267.5 526L1271.8 528.5L1271.3 529.4ZM1289.4 491.1L1284.7 489.4L1285 488.5L1289.7 490.2L1289.4 491.1ZM1300.5 450.2L1295.6 449.3L1295.8 448.3L1300.7 449.2L1300.5 450.2ZM1304.3 408H1299.3V407H1304.3V408Z" fill="#00AAB8"/>
<path d="M984.23 829.353L983.383 829.883L1024.77 895.996L1025.62 895.465L984.23 829.353Z" fill="#00AAB8"/>
<path d="M1143.81 505.967L1046.9 592.008L1047.56 592.756L1144.47 506.715L1143.81 505.967Z" fill="#00AAB8"/>
<path d="M1046.61 592.37L983.344 829.572L984.31 829.83L1047.58 592.628L1046.61 592.37Z" fill="#00AAB8"/>
<path d="M1271.39 266.027L1261.44 260.277L1255.69 270.236L1265.64 275.986L1271.39 266.027Z" fill="#006B93"/>
<path d="M853 193.1L837.5 184.1L846.5 168.6L862 177.6L853 193.1ZM838.8 183.8L852.6 191.8L860.6 178L846.8 170L838.8 183.8Z" fill="#006B93"/>
<path d="M1247.73 182.58L1237.58 165L1220 175.15L1230.15 192.73L1247.73 182.58Z" fill="#1D10D8"/>
<path d="M904.229 592.008L903.681 580.521L892.193 581.069L892.742 592.556L904.229 592.008Z" fill="#006B93"/>
<path d="M765.114 569.358L754.138 552.282L737.061 563.258L748.038 580.334L765.114 569.358Z" fill="#006B93"/>
<path d="M1218.61 591.783L1215.23 589.833L1213.28 593.21L1216.66 595.16L1218.61 591.783Z" fill="#006B93"/>
<path d="M1232.79 664.333L1238.24 661.183L1235.09 655.727L1229.64 658.877L1232.79 664.333Z" fill="#006B93"/>
<path d="M991.667 827.542L981.708 821.792L975.958 831.751L985.917 837.501L991.667 827.542Z" fill="#00AAB8"/>
<path d="M812.2 596.4V595.4C1047.4 591.9 1047.5 592 1047.7 592.1L1047.1 592.9L1047.4 592.5V593C1045.2 592.9 814.5 596.4 812.2 596.4Z" fill="#382CDD"/>
<path d="M861.191 177.326L861.164 178.326L978.117 181.425L978.144 180.426L861.191 177.326Z" fill="#006B93"/>
<path d="M1061.3 714.6C1016.3 714.6 972.899 705.1 932.399 686.4L932.799 685.5C973.199 704.2 1016.4 713.6 1061.3 713.6V714.6V714.6Z" fill="#382CDD"/>
<path d="M984.384 22.3315L979.102 19.2815L976.052 24.5641L981.334 27.6141L984.384 22.3315Z" fill="#00AAB8"/>
<path d="M754.7 407H753.7C753.7 347.1 770.9 289.1 803.5 239.2L804.3 239.7C771.8 289.5 754.7 347.3 754.7 407Z" fill="#30D8D8"/>
<path d="M729.8 706.3L729.5 701.3L730.5 701.2L730.8 706.2L729.8 706.3ZM771.7 703.6L771.4 698.6L772.4 698.5L772.7 703.5L771.7 703.6ZM813.6 701L813.3 696L814.3 695.9L814.6 700.9L813.6 701ZM855.5 698.4L855.2 693.4L856.2 693.3L856.5 698.3L855.5 698.4ZM897.4 695.8L897.1 690.8L898.1 690.7L898.4 695.7L897.4 695.8ZM939.4 693.3L939.1 688.3L940.1 688.2L940.4 693.2L939.4 693.3ZM981.3 690.9L981 685.9L982 685.8L982.3 690.8L981.3 690.9ZM1023.2 688.5L1022.9 683.5L1023.9 683.4L1024.2 688.4L1023.2 688.5ZM1065.2 686.1L1064.9 681.1L1065.9 681L1066.2 686L1065.2 686.1ZM1107.1 683.8L1106.8 678.8L1107.8 678.7L1108.1 683.7L1107.1 683.8ZM1149 681.5L1148.7 676.5L1149.7 676.4L1150 681.4L1149 681.5ZM1191 679.2L1190.7 674.2L1191.7 674.1L1192 679.1L1191 679.2ZM1232.9 677L1232.6 672L1233.6 671.9L1233.9 676.9L1232.9 677ZM1274.9 674.8L1274.6 669.8L1275.6 669.7L1275.8 674.7L1274.9 674.8ZM1316.8 672.6L1316.6 667.6H1317.6L1317.9 672.6H1316.8ZM1358.8 670.5L1358.6 665.5L1359.6 665.4L1359.9 670.4L1358.8 670.5ZM1400.7 668.4L1400.5 663.4H1401.5L1401.7 668.4H1400.7ZM1442.7 666.3L1442.5 661.3H1443.5L1443.7 666.3H1442.7ZM1484.6 664.3L1484.4 659.3H1485.4L1485.6 664.3H1484.6ZM1526.6 662.3L1526.4 657.3H1527.4L1527.6 662.3H1526.6ZM1568.5 660.3L1568.3 655.3H1569.3L1569.5 660.3H1568.5ZM1610.5 658.3L1610.3 653.3H1611.3L1611.5 658.3H1610.5ZM1652.4 656.4L1652.2 651.4H1653.2L1653.4 656.4H1652.4ZM1694.4 654.5L1694.2 649.5H1695.2L1695.4 654.5H1694.4ZM1736.4 652.6L1736.2 647.6H1737.2L1737.4 652.6H1736.4ZM1778.3 650.8L1778.1 645.8H1779.1L1779.3 650.8H1778.3ZM1820.3 649L1820.1 644H1821.1L1821.3 649H1820.3ZM1862.2 647.2L1862 642.2H1863L1863.2 647.2H1862.2ZM1904.2 645.4L1904 640.4H1905L1905.2 645.4H1904.2ZM1946.2 643.7L1946 638.7H1947L1947.2 643.7H1946.2ZM1988.1 641.9L1987.9 636.9H1988.9L1989.1 641.9H1988.1ZM2030.1 640.2L2029.9 635.2H2030.9L2031.1 640.2H2030.1ZM2072.1 638.5L2071.9 633.5H2072.9L2073.1 638.5H2072.1ZM2114 636.9L2113.8 631.9H2114.8L2115 636.9H2114ZM2156 635.2L2155.8 630.2H2156.8L2157 635.2H2156ZM2198 633.6L2197.8 628.6H2198.8L2199 633.6H2198ZM2240 632L2239.8 627H2240.8L2241 632H2240ZM2281.9 630.4L2281.7 625.4H2282.7L2282.9 630.4H2281.9ZM2323.9 628.9L2323.7 623.9H2324.7L2324.9 628.9H2323.9ZM2365.9 627.3L2365.7 622.3H2366.7L2366.9 627.3H2365.9ZM2407.8 625.8L2407.6 620.8H2408.6L2408.8 625.8H2407.8ZM2449.8 624.3L2449.6 619.3H2450.6L2450.8 624.3H2449.8ZM2491.8 622.8L2491.6 617.8H2492.6L2492.8 622.8H2491.8ZM2533.8 621.4L2533.6 616.4H2534.6L2534.8 621.4H2533.8ZM2575.8 619.9L2575.6 614.9H2576.6L2576.8 619.9H2575.8ZM2617.7 618.5L2617.5 613.5H2618.5L2618.7 618.5H2617.7ZM2659.7 617.1L2659.5 612.1H2660.5L2660.7 617.1H2659.7ZM2701.7 615.7L2701.5 610.7H2702.5L2702.7 615.7H2701.7ZM2743.7 614.3L2743.5 609.3H2744.5L2744.7 614.3H2743.7ZM2785.6 612.9L2785.4 607.9H2786.4L2786.6 612.9H2785.6ZM2827.6 611.6L2827.4 606.6H2828.4L2828.6 611.6H2827.6ZM2869.6 610.3L2869.4 605.3H2870.4L2870.5 610.3H2869.6ZM2911.6 609L2911.4 604H2912.4L2912.5 609H2911.6ZM2953.6 607.7L2953.5 602.7H2954.5L2954.7 607.7H2953.6ZM2995.5 606.4L2995.4 601.4H2996.4L2996.6 606.4H2995.5ZM3037.5 605.1L3037.4 600.1H3038.4L3038.6 605.1H3037.5ZM3079.5 603.9L3079.4 598.9H3080.4L3080.5 603.9H3079.5ZM3121.5 602.6L3121.4 597.6H3122.4L3122.5 602.6H3121.5ZM3163.5 601.4L3163.4 596.4H3164.4L3164.5 601.4H3163.5ZM3205.5 600.2L3205.4 595.2H3206.4L3206.5 600.2H3205.5ZM3247.4 599L3247.3 594H3248.3L3248.4 599H3247.4ZM3289.4 597.8L3289.3 592.8H3290.3L3290.4 597.8H3289.4ZM3331.4 596.7L3331.3 591.7H3332.3L3332.4 596.7H3331.4ZM3373.4 595.5L3373.3 590.5H3374.3L3374.4 595.5H3373.4ZM3415.4 594.4L3415.3 589.4H3416.3L3416.4 594.4H3415.4ZM3457.4 593.3L3457.3 588.3H3458.3L3458.4 593.3H3457.4ZM3499.4 592.2L3499.3 587.2H3500.3L3500.4 592.2H3499.4ZM3541.3 591.1L3541.2 586.1H3542.2L3542.3 591.1H3541.3ZM3583.3 590L3583.2 585H3584.2L3584.3 590H3583.3ZM3625.3 589L3625.2 584H3626.2L3626.3 589H3625.3ZM3667.3 587.9L3667.2 582.9H3668.2L3668.3 587.9H3667.3ZM3709.3 586.9L3709.2 581.9H3710.2L3710.3 586.9H3709.3ZM3751.3 585.8L3751.2 580.8H3752.2L3752.3 585.8H3751.3ZM3793.3 584.8L3793.2 579.8H3794.2L3794.3 584.8H3793.3ZM3835.3 583.8L3835.2 578.8H3836.2L3836.3 583.8H3835.3ZM3877.3 582.8L3877.2 577.8H3878.2L3878.3 582.8H3877.3ZM3919.2 581.9L3919.1 576.9H3920.1L3920.2 581.9H3919.2ZM3961.2 580.9L3961.1 575.9H3962.1L3962.2 580.9H3961.2ZM4003.2 580L4003.1 575H4004.1L4004.2 580H4003.2ZM4045.2 579L4045.1 574H4046.1L4046.2 579H4045.2ZM4087.2 578.1L4087.1 573.1H4088.1L4088.2 578.1H4087.2ZM4129.2 577.2L4129.1 572.2H4130.1L4130.2 577.2H4129.2ZM4171.2 576.3L4171.1 571.3H4172.1L4172.2 576.3H4171.2ZM4213.2 575.4L4213.1 570.4H4214.1L4214.2 575.4H4213.2ZM4255.2 574.5L4255.1 569.5H4256.1L4256.2 574.5H4255.2ZM4297.2 573.6L4297.1 568.6H4298.1L4298.2 573.6H4297.2ZM4339.2 572.8L4339.1 567.8H4340.1L4340.2 572.8H4339.2ZM4381.2 571.9L4381.1 566.9H4382.1L4382.2 571.9H4381.2ZM4423.1 571.1L4423 566.1H4424L4424.1 571.1H4423.1ZM4465.1 570.3L4465 565.3H4466L4466.1 570.3H4465.1ZM4507.1 569.5L4507 564.5H4508L4508.1 569.5H4507.1ZM4549.1 568.7L4549 563.7H4550L4550.1 568.7H4549.1ZM4591.1 567.9L4591 562.9H4592L4592.1 567.9H4591.1ZM4633.1 567.1L4633 562.1H4634L4634.1 567.1H4633.1ZM4675.1 566.4L4675 561.4H4676L4676.1 566.4H4675.1ZM4717.1 565.6L4717 560.6H4718L4718.1 565.6H4717.1ZM4759.1 564.9L4759 559.9H4760L4760.1 564.9H4759.1ZM4801.1 564.1L4801 559.1H4802L4802.1 564.1H4801.1ZM4843.1 563.4L4843 558.4H4844L4844.1 563.4H4843.1ZM4885.1 562.7L4885 557.7H4886L4886.1 562.7H4885.1ZM4927.1 562L4927 557H4928L4928.1 562H4927.1ZM4969.1 561.3L4969 556.3H4970L4970.1 561.3H4969.1ZM5011.1 560.6L5011 555.6H5012L5012.1 560.6H5011.1ZM5053.1 560L5053 555H5054L5054.1 560H5053.1ZM5095.1 559.3L5095 554.3H5096L5096.1 559.3H5095.1ZM5137.1 558.7L5137 553.7H5138L5138.1 558.7H5137.1ZM5179.1 558L5179 553H5180L5180.1 558H5179.1ZM5221 557.4L5220.9 552.4H5221.9L5222 557.4H5221ZM5263 556.8L5262.9 551.8H5263.9L5264 556.8H5263ZM5305 556.2L5304.9 551.2H5305.9L5306 556.2H5305ZM5347 555.6L5346.9 550.6H5347.9L5348 555.6H5347ZM5389 555L5388.9 550H5389.9L5390 555H5389ZM5431 554.4L5430.9 549.4H5431.9L5432 554.4H5431ZM5473 553.8L5472.9 548.8H5473.9L5474 553.8H5473ZM5515 553.3L5514.9 548.3H5515.9L5516 553.3H5515ZM5557 552.7L5556.9 547.7H5557.9L5558 552.7H5557ZM5599 552.2L5598.9 547.2H5599.9L5600 552.2H5599ZM5641 551.6L5640.9 546.6H5641.9L5642 551.6H5641ZM5683 551.1L5682.9 546.1H5683.9L5684 551.1H5683ZM5725 550.6L5724.9 545.6H5725.9L5726 550.6H5725ZM5767 550.1L5766.9 545.1H5767.9L5768 550.1H5767ZM5809 549.6L5808.9 544.6H5809.9L5810 549.6H5809ZM5851 549.1L5850.9 544.1H5851.9L5852 549.1H5851ZM5893 548.7L5892.9 543.7H5893.9V548.7H5893ZM5935 548.2L5934.9 543.2H5935.9V548.2H5935ZM5977 547.7L5976.9 542.7H5977.9V547.7H5977ZM6019 547.3L6018.9 542.3H6019.9V547.3H6019ZM6061 546.8L6060.9 541.8H6061.9V546.8H6061ZM6103 546.4V541.4H6104L6104.1 546.4H6103ZM6145 546V541H6146L6146.1 546H6145ZM6187 545.6V540.6H6188L6188.1 545.6H6187ZM6229 545.2V540.2H6230L6230.1 545.2H6229ZM6271 544.8V539.8H6272V544.8H6271ZM6313 544.4V539.4H6314V544.4H6313ZM6355 544V539H6356V544H6355ZM6397 543.7V538.7H6398V543.7H6397ZM6439 543.3V538.3H6440V543.3H6439ZM6481 543V538H6482V543H6481ZM6523 542.6V537.6H6524V542.6H6523ZM6565 542.3V537.3H6566V542.3H6565ZM6607 542V537H6608V542H6607ZM6649 541.7V536.7H6650V541.7H6649ZM6691 541.4V536.4H6692V541.4H6691ZM6733 541.1V536.1H6734V541.1H6733ZM6775 540.8V535.8H6776V540.8H6775ZM6817 540.5V535.5H6818V540.5H6817ZM6859 540.3V535.3H6860V540.3H6859ZM6901 540V535H6902V540H6901ZM6943 539.8V534.8H6944V539.8H6943ZM6985 539.5V534.5H6986V539.5H6985ZM7027 539.3V534.3H7028V539.3H7027ZM7069 539.1V534.1H7070V539.1H7069ZM7111 538.8V533.8H7112V538.8H7111ZM7153 538.6V533.6H7154V538.6H7153ZM7195 538.4V533.4H7196V538.4H7195ZM7237 538.2V533.2H7238V538.2H7237ZM7279 538.1V533.1H7280V538.1H7279ZM7321 537.9V532.9H7322V537.9H7321ZM7363 537.7V532.7H7364V537.7H7363ZM7405 537.6V532.6H7406V537.6H7405ZM7447 537.4V532.4H7448V537.4H7447ZM7489 537.3V532.3H7490V537.3H7489ZM7531 537.1V532.1H7532V537.1H7531ZM7573 537V532H7574V537H7573ZM7615 536.9V531.9H7616V536.9H7615ZM7657 536.8V531.8H7658V536.8H7657ZM7699 536.7V531.7H7700V536.7H7699ZM7741 536.6V531.6H7742V536.6H7741ZM7783 536.5V531.5H7784V536.5H7783ZM7825 536.5V531.5H7826V536.5H7825ZM7866.8 536.4V531.4H7867.8V536.4H7866.8ZM7908.7 536.3V531.3H7909.7V536.3H7908.7ZM7950.6 536.3V531.3H7951.6V536.3H7950.6ZM7992.5 536.3V531.3H7993.5V536.3H7992.5ZM8034.4 536.2V531.2H8035.4V536.2H8034.4ZM8077.3 536.2H8076.3V531.2H8077.3V536.2ZM8119.3 536.2H8118.3V531.2H8119.3V536.2ZM8161.3 536.2H8160.3V531.2H8161.3V536.2Z" fill="#382CDD"/>
<path d="M751.8 655.6L751.4 650.6L752.4 650.5L752.8 655.5L751.8 655.6ZM793.6 651.9L793.2 646.9L794.2 646.8L794.6 651.8L793.6 651.9ZM835.5 648.4L835.1 643.4L836.1 643.3L836.5 648.3L835.5 648.4ZM877.3 644.9L876.9 639.9L877.9 639.8L878.3 644.8L877.3 644.9ZM919.2 641.5L918.8 636.5L919.8 636.4L920.2 641.4L919.2 641.5ZM961.1 638.2L960.7 633.2L961.7 633.1L962.1 638.1L961.1 638.2ZM1002.9 634.9L1002.5 629.9L1003.5 629.8L1003.9 634.8L1002.9 634.9ZM1044.8 631.8L1044.4 626.8L1045.4 626.7L1045.8 631.7L1044.8 631.8ZM1086.7 628.6L1086.3 623.6L1087.3 623.5L1087.7 628.5L1086.7 628.6ZM1128.6 625.6L1128.2 620.6L1129.2 620.5L1129.6 625.5L1128.6 625.6ZM1170.5 622.6L1170.1 617.6L1171.1 617.5L1171.5 622.5L1170.5 622.6ZM1212.5 619.7L1212.1 614.7L1213.1 614.6L1213.5 619.6L1212.5 619.7ZM1254.3 616.9L1254 611.9L1255 611.8L1255.3 616.8L1254.3 616.9ZM1296.2 614.1L1295.9 609.1L1296.9 609L1297.2 614L1296.2 614.1ZM1338.1 611.3L1337.8 606.3L1338.8 606.2L1339.1 611.2L1338.1 611.3ZM1380 608.7L1379.7 603.7L1380.7 603.6L1381 608.6L1380 608.7ZM1422 606L1421.7 601L1422.7 600.9L1423 605.9L1422 606ZM1463.9 603.4L1463.6 598.4L1464.6 598.3L1464.9 603.3L1463.9 603.4ZM1505.8 600.9L1505.5 595.9L1506.5 595.8L1506.8 600.8L1505.8 600.9ZM1547.7 598.4L1547.4 593.4L1548.4 593.3L1548.7 598.3L1547.7 598.4ZM1589.7 596L1589.4 591L1590.4 590.9L1590.7 595.9L1589.7 596ZM1631.6 593.6L1631.3 588.6L1632.3 588.5L1632.6 593.5L1631.6 593.6ZM1673.5 591.2L1673.2 586.2L1674.2 586.1L1674.5 591.1L1673.5 591.2ZM1715.5 588.9L1715.2 583.9L1716.2 583.8L1716.5 588.8L1715.5 588.9ZM1757.4 586.6L1757.1 581.6L1758.1 581.5L1758.4 586.5L1757.4 586.6ZM1799.4 584.4L1799.1 579.4L1800.1 579.3L1800.4 584.3L1799.4 584.4ZM1841.3 582.2L1841 577.2L1842 577.1L1842.2 582.1L1841.3 582.2ZM1883.2 580.1L1883 575.1H1884L1884.3 580.1H1883.2ZM1925.2 578L1925 573H1926L1926.2 578H1925.2ZM1967.1 575.9L1966.9 570.9H1967.9L1968.1 575.9H1967.1ZM2009.1 573.8L2008.9 568.8H2009.9L2010.1 573.8H2009.1ZM2051 571.8L2050.8 566.8H2051.8L2052 571.8H2051ZM2093 569.9L2092.8 564.9H2093.8L2094 569.9H2093ZM2135 567.9L2134.8 562.9H2135.8L2136 567.9H2135ZM2176.9 566L2176.7 561H2177.7L2177.9 566H2176.9ZM2218.9 564.1L2218.7 559.1H2219.7L2219.9 564.1H2218.9ZM2260.8 562.3L2260.6 557.3H2261.6L2261.8 562.3H2260.8ZM2302.8 560.5L2302.6 555.5H2303.6L2303.8 560.5H2302.8ZM2344.8 558.7L2344.6 553.7H2345.6L2345.8 558.7H2344.8ZM2386.7 557L2386.5 552H2387.5L2387.7 557H2386.7ZM2428.7 555.3L2428.5 550.3H2429.5L2429.7 555.3H2428.7ZM2470.7 553.6L2470.5 548.6H2471.5L2471.7 553.6H2470.7ZM2512.6 551.9L2512.4 546.9H2513.4L2513.6 551.9H2512.6ZM2554.6 550.3L2554.4 545.3H2555.4L2555.6 550.3H2554.6ZM2596.6 548.7L2596.4 543.7H2597.4L2597.6 548.7H2596.6ZM2638.5 547.1L2638.3 542.1H2639.3L2639.5 547.1H2638.5ZM2680.5 545.5L2680.3 540.5H2681.3L2681.5 545.5H2680.5ZM2722.5 544L2722.3 539H2723.3L2723.5 544H2722.5ZM2764.5 542.5L2764.3 537.5H2765.3L2765.5 542.5H2764.5ZM2806.4 541L2806.2 536H2807.2L2807.4 541H2806.4ZM2848.4 539.6L2848.2 534.6H2849.2L2849.4 539.6H2848.4ZM2890.4 538.2L2890.2 533.2H2891.2L2891.4 538.2H2890.4ZM2932.4 536.8L2932.2 531.8H2933.2L2933.4 536.8H2932.4ZM2974.3 535.4L2974.1 530.4H2975.1L2975.3 535.4H2974.3ZM3016.3 534.1L3016.1 529.1H3017.1L3017.3 534.1H3016.3ZM3058.3 532.7L3058.1 527.7H3059.1L3059.2 532.7H3058.3ZM3100.3 531.4L3100.2 526.4H3101.2L3101.4 531.4H3100.3ZM3142.3 530.2L3142.2 525.2H3143.2L3143.4 530.2H3142.3ZM3184.3 528.9L3184.2 523.9H3185.2L3185.3 528.9H3184.3ZM3226.2 527.7L3226.1 522.7H3227.1L3227.2 527.7H3226.2ZM3268.2 526.5L3268.1 521.5H3269.1L3269.2 526.5H3268.2ZM3310.2 525.3L3310.1 520.3H3311.1L3311.2 525.3H3310.2ZM3352.2 524.1L3352.1 519.1H3353.1L3353.2 524.1H3352.2ZM3394.2 523L3394.1 518H3395.1L3395.2 523H3394.2ZM3436.2 521.9L3436.1 516.9H3437.1L3437.2 521.9H3436.2ZM3478.2 520.8L3478.1 515.8H3479.1L3479.2 520.8H3478.2ZM3520.1 519.7L3520 514.7H3521L3521.1 519.7H3520.1ZM3562.1 518.6L3562 513.6H3563L3563.1 518.6H3562.1ZM3604.1 517.6L3604 512.6H3605L3605.1 517.6H3604.1ZM3646.1 516.6L3646 511.6H3647L3647.1 516.6H3646.1ZM3688.1 515.6L3688 510.6H3689L3689.1 515.6H3688.1ZM3730.1 514.6L3730 509.6H3731L3731.1 514.6H3730.1ZM3772.1 513.6L3772 508.6H3773L3773.1 513.6H3772.1ZM3814.1 512.7L3814 507.7H3815L3815.1 512.7H3814.1ZM3856 511.8L3855.9 506.8H3856.9L3857 511.8H3856ZM3898 510.9L3897.9 505.9H3898.9L3899 510.9H3898ZM3940 510L3939.9 505H3940.9L3941 510H3940ZM3982 509.2L3981.9 504.2H3982.9L3983 509.2H3982ZM4024 508.3L4023.9 503.3H4024.9L4025 508.3H4024ZM4066 507.5L4065.9 502.5H4066.9L4067 507.5H4066ZM4108 506.7L4107.9 501.7H4108.9L4109 506.7H4108ZM4150 505.9L4149.9 500.9H4150.9L4151 505.9H4150ZM4192 505.2L4191.9 500.2H4192.9L4193 505.2H4192ZM4234 504.4L4233.9 499.4H4234.9L4235 504.4H4234ZM4276 503.7L4275.9 498.7H4276.9L4277 503.7H4276ZM4318 503L4317.9 498H4318.9L4319 503H4318ZM4360 502.3L4359.9 497.3H4360.9L4361 502.3H4360ZM4402 501.6L4401.9 496.6H4402.9L4403 501.6H4402ZM4444 501L4443.9 496H4444.9L4445 501H4444ZM4486 500.4L4485.9 495.4H4486.9L4487 500.4H4486ZM4528 499.7L4527.9 494.7H4528.9L4529 499.7H4528ZM4570 499.2L4569.9 494.2H4570.9L4571 499.2H4570ZM4612 498.6L4611.9 493.6H4612.9L4613 498.6H4612ZM4653.9 498L4653.8 493H4654.8L4654.9 498H4653.9ZM4695.9 497.5L4695.8 492.5H4696.8L4696.9 497.5H4695.9ZM4737.9 496.9L4737.8 491.9H4738.8L4738.9 496.9H4737.9ZM4779.9 496.4L4779.8 491.4H4780.8L4780.9 496.4H4779.9ZM4821.9 495.9L4821.8 490.9H4822.8L4822.9 495.9H4821.9ZM4863.9 495.5L4863.8 490.5H4864.8V495.5H4863.9ZM4905.9 495L4905.8 490H4906.8V495H4905.9ZM4947.9 494.6L4947.8 489.6H4948.8V494.6H4947.9ZM4989.9 494.1V489.1H4990.9L4991 494.1H4989.9ZM5031.9 493.7V488.7H5032.9L5033 493.7H5031.9ZM5073.9 493.3V488.3H5074.9V493.3H5073.9ZM5115.9 493V488H5116.9V493H5115.9ZM5157.9 492.6V487.6H5158.9V492.6H5157.9ZM5199.9 492.3V487.3H5200.9V492.3H5199.9ZM5241.9 491.9V486.9H5242.9V491.9H5241.9ZM5283.9 491.6V486.6H5284.9V491.6H5283.9ZM5325.9 491.3V486.3H5326.9V491.3H5325.9ZM5367.9 491.1V486.1H5368.9V491.1H5367.9ZM5409.9 490.8V485.8H5410.9V490.8H5409.9ZM5451.9 490.6V485.6H5452.9V490.6H5451.9ZM5493.9 490.3V485.3H5494.9V490.3H5493.9ZM5535.9 490.1V485.1H5536.9V490.1H5535.9ZM5577.9 489.9V484.9H5578.9V489.9H5577.9ZM5619.9 489.7V484.7H5620.9V489.7H5619.9ZM5661.9 489.6V484.6H5662.9V489.6H5661.9ZM5703.9 489.4V484.4H5704.9V489.4H5703.9ZM5745.9 489.3V484.3H5746.9V489.3H5745.9ZM5787.9 489.2V484.2H5788.9V489.2H5787.9ZM5829.9 489.1V484.1H5830.9V489.1H5829.9ZM5871.8 489V484H5872.8V489H5871.8ZM5913.7 488.9V483.9H5914.7V488.9H5913.7ZM5955.6 488.9V483.9H5956.6V488.9H5955.6ZM5997.5 488.9V483.9H5998.5V488.9H5997.5ZM6040.5 488.8H6039.5V483.8H6040.5V488.8Z" fill="#382CDD"/>
<path d="M767.6 605.9L767 600.9L768 600.8L768.6 605.8L767.6 605.9ZM809.3 600.9L808.7 595.9L809.7 595.8L810.3 600.8L809.3 600.9ZM851 596.1L850.4 591.1L851.4 591L852 596L851 596.1ZM892.7 591.5L892.2 586.5L893.2 586.4L893.8 591.4L892.7 591.5ZM934.5 587L934 582L935 581.9L935.5 586.9L934.5 587ZM976.3 582.6L975.8 577.6L976.8 577.5L977.3 582.5L976.3 582.6ZM1018 578.4L1017.5 573.4L1018.5 573.3L1019 578.3L1018 578.4ZM1059.8 574.2L1059.3 569.2L1060.3 569.1L1060.8 574.1L1059.8 574.2ZM1101.7 570.3L1101.2 565.3L1102.2 565.2L1102.7 570.2L1101.7 570.3ZM1143.5 566.4L1143 561.4L1144 561.3L1144.5 566.3L1143.5 566.4ZM1185.3 562.6L1184.9 557.6L1185.9 557.5L1186.4 562.5L1185.3 562.6ZM1227.1 558.9L1226.7 553.9L1227.7 553.8L1228.1 558.8L1227.1 558.9ZM1269 555.4L1268.6 550.4L1269.6 550.3L1270 555.3L1269 555.4ZM1310.8 551.9L1310.4 546.9L1311.4 546.8L1311.8 551.8L1310.8 551.9ZM1352.7 548.5L1352.3 543.5L1353.3 543.4L1353.7 548.4L1352.7 548.5ZM1394.6 545.2L1394.2 540.2L1395.2 540.1L1395.6 545.1L1394.6 545.2ZM1436.5 542L1436.1 537L1437.1 536.9L1437.5 541.9L1436.5 542ZM1478.3 538.9L1477.9 533.9L1478.9 533.8L1479.3 538.8L1478.3 538.9ZM1520.2 535.8L1519.8 530.8L1520.8 530.7L1521.2 535.7L1520.2 535.8ZM1562.1 532.8L1561.7 527.8L1562.7 527.7L1563.1 532.7L1562.1 532.8ZM1604.1 529.9L1603.7 524.9L1604.7 524.8L1605.1 529.8L1604.1 529.9ZM1645.9 527.1L1645.6 522.1L1646.6 522L1646.9 527L1645.9 527.1ZM1687.8 524.3L1687.5 519.3L1688.5 519.2L1688.8 524.2L1687.8 524.3ZM1729.8 521.6L1729.5 516.6L1730.5 516.5L1730.8 521.5L1729.8 521.6ZM1771.7 518.9L1771.4 513.9L1772.4 513.8L1772.7 518.8L1771.7 518.9ZM1813.6 516.4L1813.3 511.4L1814.3 511.3L1814.6 516.3L1813.6 516.4ZM1855.5 513.8L1855.2 508.8L1856.2 508.7L1856.5 513.7L1855.5 513.8ZM1897.4 511.4L1897.1 506.4L1898.1 506.3L1898.4 511.3L1897.4 511.4ZM1939.4 509L1939.1 504L1940.1 503.9L1940.4 508.9L1939.4 509ZM1981.3 506.6L1981 501.6L1982 501.5L1982.3 506.5L1981.3 506.6ZM2023.2 504.4L2022.9 499.4L2023.9 499.3L2024.2 504.3L2023.2 504.4ZM2065.2 502.1L2064.9 497.1L2065.9 497L2066.2 502L2065.2 502.1ZM2107.1 499.9L2106.8 494.9L2107.8 494.8L2108 499.8L2107.1 499.9ZM2149.1 497.8L2148.9 492.8H2149.9L2150.1 497.8H2149.1ZM2191 495.7L2190.8 490.7H2191.8L2192 495.7H2191ZM2233 493.7L2232.8 488.7H2233.8L2234 493.7H2233ZM2274.9 491.7L2274.7 486.7H2275.7L2275.9 491.7H2274.9ZM2316.9 489.8L2316.7 484.8H2317.7L2317.9 489.8H2316.9ZM2358.8 487.9L2358.6 482.9H2359.6L2359.8 487.9H2358.8ZM2400.8 486.1L2400.6 481.1H2401.6L2401.8 486.1H2400.8ZM2442.8 484.3L2442.6 479.3H2443.6L2443.8 484.3H2442.8ZM2484.7 482.5L2484.5 477.5H2485.5L2485.7 482.5H2484.7ZM2526.7 480.8L2526.5 475.8H2527.5L2527.7 480.8H2526.7ZM2568.7 479.2L2568.5 474.2H2569.5L2569.7 479.2H2568.7ZM2610.6 477.5L2610.4 472.5H2611.4L2611.6 477.5H2610.6ZM2652.6 476L2652.4 471H2653.4L2653.6 476H2652.6ZM2694.6 474.4L2694.4 469.4H2695.4L2695.6 474.4H2694.6ZM2736.6 472.9L2736.4 467.9H2737.4L2737.6 472.9H2736.6ZM2778.5 471.5L2778.3 466.5H2779.3L2779.5 471.5H2778.5ZM2820.5 470.1L2820.3 465.1H2821.3L2821.5 470.1H2820.5ZM2862.5 468.7L2862.3 463.7H2863.3L2863.5 468.7H2862.5ZM2904.5 467.4L2904.3 462.4H2905.3L2905.4 467.4H2904.5ZM2946.5 466.1L2946.4 461.1H2947.4L2947.6 466.1H2946.5ZM2988.4 464.8L2988.3 459.8H2989.3L2989.4 464.8H2988.4ZM3030.4 463.6L3030.3 458.6H3031.3L3031.4 463.6H3030.4ZM3072.4 462.4L3072.2 457.4H3073.2L3073.3 462.4H3072.4ZM3114.4 461.3L3114.3 456.3H3115.3L3115.4 461.3H3114.4ZM3156.4 460.2L3156.3 455.2H3157.3L3157.4 460.2H3156.4ZM3198.4 459.1L3198.3 454.1H3199.3L3199.4 459.1H3198.4ZM3240.3 458.1L3240.2 453.1H3241.2L3241.3 458.1H3240.3ZM3282.3 457.1L3282.2 452.1H3283.2L3283.3 457.1H3282.3ZM3324.3 456.1L3324.2 451.1H3325.2L3325.3 456.1H3324.3ZM3366.3 455.2L3366.2 450.2H3367.2L3367.3 455.2H3366.3ZM3408.3 454.3L3408.2 449.3H3409.2L3409.3 454.3H3408.3ZM3450.3 453.4L3450.2 448.4H3451.2L3451.3 453.4H3450.3ZM3492.3 452.6L3492.2 447.6H3493.2L3493.3 452.6H3492.3ZM3534.3 451.8L3534.2 446.8H3535.2L3535.3 451.8H3534.3ZM3576.3 451L3576.2 446H3577.2L3577.3 451H3576.3ZM3618.3 450.3L3618.2 445.3H3619.2L3619.3 450.3H3618.3ZM3660.3 449.6L3660.2 444.6H3661.2L3661.3 449.6H3660.3ZM3702.3 448.9L3702.2 443.9H3703.2L3703.3 448.9H3702.3ZM3744.3 448.3L3744.2 443.3H3745.2L3745.3 448.3H3744.3ZM3786.3 447.7L3786.2 442.7H3787.2L3787.3 447.7H3786.3ZM3828.3 447.2L3828.2 442.2H3829.2L3829.3 447.2H3828.3ZM3870.3 446.6L3870.2 441.6H3871.2L3871.3 446.6H3870.3ZM3912.3 446.1L3912.2 441.1H3913.2L3913.3 446.1H3912.3ZM3954.3 445.7L3954.2 440.7H3955.2V445.7H3954.3ZM3996.2 445.2V440.2H3997.2L3997.3 445.2H3996.2ZM4038.2 444.8V439.8H4039.2V444.8H4038.2ZM4080.2 444.5V439.5H4081.2V444.5H4080.2ZM4122.2 444.1V439.1H4123.2V444.1H4122.2ZM4164.2 443.8V438.8H4165.2V443.8H4164.2ZM4206.2 443.5V438.5H4207.2V443.5H4206.2ZM4248.2 443.3V438.3H4249.2V443.3H4248.2ZM4290.2 443.1V438.1H4291.2V443.1H4290.2ZM4332.2 442.9V437.9H4333.2V442.9H4332.2ZM4374.2 442.7V437.7H4375.2V442.7H4374.2ZM4416.2 442.6V437.6H4417.2V442.6H4416.2ZM4458.1 442.5V437.5H4459.1V442.5H4458.1ZM4500 442.5V437.5H4501V442.5H4500ZM4543 442.4H4542V437.4H4543V442.4Z" fill="#382CDD"/>
<path d="M778.9 557.2L778.1 552.3L779.1 552.1L779.9 557L778.9 557.2ZM820.3 550.4L819.5 545.5L820.5 545.3L821.3 550.2L820.3 550.4ZM861.8 544L861.1 539.1L862.1 539L862.8 543.9L861.8 544ZM903.4 537.8L902.7 532.9L903.7 532.8L904.4 537.7L903.4 537.8ZM944.9 531.9L944.2 526.9L945.2 526.8L945.9 531.8L944.9 531.9ZM986.6 526.3L985.9 521.3L986.9 521.2L987.6 526.2L986.6 526.3ZM1028.2 520.9L1027.6 515.9L1028.6 515.8L1029.2 520.8L1028.2 520.9ZM1069.9 515.6L1069.3 510.6L1070.3 510.5L1070.9 515.5L1069.9 515.6ZM1111.6 510.6L1111 505.6L1112 505.5L1112.6 510.5L1111.6 510.6ZM1153.3 505.8L1152.7 500.8L1153.7 500.7L1154.3 505.7L1153.3 505.8ZM1195 501.1L1194.5 496.1L1195.5 496L1196.1 501L1195 501.1ZM1236.8 496.6L1236.3 491.6L1237.3 491.5L1237.8 496.5L1236.8 496.6ZM1278.5 492.3L1278 487.3L1279 487.2L1279.5 492.2L1278.5 492.3ZM1320.3 488.1L1319.8 483.1L1320.8 483L1321.3 488L1320.3 488.1ZM1362.1 484L1361.6 479L1362.6 478.9L1363.1 483.9L1362.1 484ZM1403.9 480.1L1403.4 475.1L1404.4 475L1404.9 480L1403.9 480.1ZM1445.8 476.3L1445.4 471.3L1446.4 471.2L1446.9 476.2L1445.8 476.3ZM1487.6 472.7L1487.2 467.7L1488.2 467.6L1488.6 472.6L1487.6 472.7ZM1529.5 469.1L1529.1 464.1L1530.1 464L1530.5 469L1529.5 469.1ZM1571.3 465.7L1570.9 460.7L1571.9 460.6L1572.3 465.6L1571.3 465.7ZM1613.2 462.4L1612.8 457.4L1613.8 457.3L1614.2 462.3L1613.2 462.4ZM1655.1 459.2L1654.7 454.2L1655.7 454.1L1656.1 459.1L1655.1 459.2ZM1697 456.1L1696.6 451.1L1697.6 451L1698 456L1697 456.1ZM1738.8 453.1L1738.4 448.1L1739.4 448L1739.8 453L1738.8 453.1ZM1780.7 450.2L1780.4 445.2L1781.4 445.1L1781.7 450.1L1780.7 450.2ZM1822.6 447.4L1822.3 442.4L1823.3 442.3L1823.6 447.3L1822.6 447.4ZM1864.6 444.7L1864.3 439.7L1865.3 439.6L1865.6 444.6L1864.6 444.7ZM1906.5 442L1906.2 437L1907.2 436.9L1907.5 441.9L1906.5 442ZM1948.4 439.5L1948.1 434.5L1949.1 434.4L1949.4 439.4L1948.4 439.5ZM1990.3 437.1L1990 432.1L1991 432L1991.3 437L1990.3 437.1ZM2032.3 434.7L2032 429.7L2033 429.6L2033.3 434.6L2032.3 434.7ZM2074.2 432.5L2073.9 427.5L2074.9 427.4L2075.2 432.4L2074.2 432.5ZM2116.1 430.3L2115.9 425.3H2116.9L2117.2 430.3H2116.1ZM2158.1 428.2L2157.9 423.2H2158.9L2159.1 428.2H2158.1ZM2200 426.1L2199.8 421.1H2200.8L2201 426.1H2200ZM2242 424.2L2241.8 419.2H2242.8L2243 424.2H2242ZM2284 422.3L2283.8 417.3H2284.8L2285 422.3H2284ZM2325.9 420.5L2325.7 415.5H2326.7L2326.9 420.5H2325.9ZM2367.9 418.8L2367.7 413.8H2368.7L2368.9 418.8H2367.9ZM2409.8 417.1L2409.6 412.1H2410.6L2410.8 417.1H2409.8ZM2451.8 415.5L2451.6 410.5H2452.6L2452.8 415.5H2451.8ZM2493.8 414L2493.6 409H2494.6L2494.8 414H2493.8ZM2535.8 412.6L2535.6 407.6H2536.6L2536.8 412.6H2535.8ZM2577.7 411.2L2577.5 406.2H2578.5L2578.7 411.2H2577.7ZM2619.7 409.9L2619.6 404.9H2620.6L2620.8 409.9H2619.7ZM2661.7 408.6L2661.6 403.6H2662.6L2662.7 408.6H2661.7ZM2703.7 407.4L2703.6 402.4H2704.6L2704.7 407.4H2703.7ZM2745.7 406.3L2745.6 401.3H2746.6L2746.7 406.3H2745.7ZM2787.7 405.3L2787.6 400.3H2788.6L2788.7 405.3H2787.7ZM2829.6 404.3L2829.5 399.3H2830.5L2830.6 404.3H2829.6ZM2871.6 403.4L2871.5 398.4H2872.5L2872.6 403.4H2871.6ZM2913.6 402.5L2913.5 397.5H2914.5L2914.6 402.5H2913.6ZM2955.6 401.7L2955.5 396.7H2956.5L2956.6 401.7H2955.6ZM2997.6 401L2997.5 396H2998.5L2998.6 401H2997.6ZM3039.6 400.3L3039.5 395.3H3040.5L3040.6 400.3H3039.6ZM3081.6 399.7L3081.5 394.7H3082.5L3082.6 399.7H3081.6ZM3123.6 399.2L3123.5 394.2H3124.5L3124.6 399.2H3123.6ZM3165.6 398.7L3165.5 393.7H3166.5V398.7H3165.6ZM3207.6 398.3V393.3H3208.6L3208.7 398.3H3207.6ZM3249.6 397.9V392.9H3250.6V397.9H3249.6ZM3291.6 397.6V392.6H3292.6V397.6H3291.6ZM3333.6 397.3V392.3H3334.6V397.3H3333.6ZM3375.6 397.1V392.1H3376.6V397.1H3375.6ZM3417.5 397V392H3418.5V397H3417.5ZM3459.4 396.9V391.9H3460.4V396.9H3459.4Z" fill="#382CDD"/>
<path d="M787 509.4L785.9 504.5L786.9 504.3L788 509.2L787 509.4ZM828 500.3L827 495.4L828 495.2L829.1 500.1L828 500.3ZM869.1 491.8L868.1 486.9L869.1 486.7L870.1 491.6L869.1 491.8ZM910.3 483.8L909.4 478.9L910.4 478.7L911.3 483.6L910.3 483.8ZM951.6 476.2L950.7 471.3L951.7 471.1L952.6 476L951.6 476.2ZM993 469L992.2 464.1L993.2 463.9L994 468.8L993 469ZM1034.4 462.2L1033.6 457.3L1034.6 457.1L1035.4 462L1034.4 462.2ZM1075.9 455.7L1075.2 450.8L1076.2 450.7L1077 455.6L1075.9 455.7ZM1117.4 449.5L1116.7 444.6L1117.7 444.5L1118.4 449.4L1117.4 449.5ZM1159 443.7L1158.3 438.7L1159.3 438.6L1160 443.6L1159 443.7ZM1200.6 438.1L1200 433.1L1201 433L1201.7 438L1200.6 438.1ZM1242.3 432.7L1241.7 427.7L1242.7 427.6L1243.3 432.6L1242.3 432.7ZM1284 427.6L1283.4 422.6L1284.4 422.5L1285 427.5L1284 427.6ZM1325.7 422.8L1325.1 417.8L1326.1 417.7L1326.7 422.7L1325.7 422.8ZM1367.4 418.1L1366.9 413.1L1367.9 413L1368.4 418L1367.4 418.1ZM1409.3 413.7L1408.7 408.7L1409.7 408.6L1410.2 413.6L1409.3 413.7ZM1451 409.5L1450.5 404.5L1451.5 404.4L1452 409.4L1451 409.5ZM1492.8 405.4L1492.3 400.4L1493.3 400.3L1493.8 405.3L1492.8 405.4ZM1534.6 401.6L1534.1 396.6L1535.1 396.5L1535.5 401.5L1534.6 401.6ZM1576.4 397.9L1576 392.9L1577 392.8L1577.4 397.8L1576.4 397.9ZM1618.3 394.4L1617.9 389.4L1618.9 389.3L1619.3 394.3L1618.3 394.4ZM1660.1 391.1L1659.7 386.1L1660.7 386L1661.1 391L1660.1 391.1ZM1702 387.9L1701.6 382.9L1702.6 382.8L1703 387.8L1702 387.9ZM1743.9 384.9L1743.5 379.9L1744.5 379.8L1744.9 384.8L1743.9 384.9ZM1785.8 382L1785.5 377L1786.5 376.9L1786.8 381.9L1785.8 382ZM1827.7 379.3L1827.4 374.3L1828.4 374.2L1828.7 379.2L1827.7 379.3ZM1869.6 376.7L1869.3 371.7L1870.3 371.6L1870.6 376.6L1869.6 376.7ZM1911.5 374.3L1911.2 369.3L1912.2 369.2L1912.5 374.2L1911.5 374.3ZM1953.5 372L1953.2 367L1954.2 366.9L1954.5 371.9L1953.5 372ZM1995.4 369.9L1995.2 364.9H1996.2L1996.4 369.9H1995.4ZM2037.4 367.8L2037.2 362.8H2038.2L2038.4 367.8H2037.4ZM2079.3 366L2079.1 361H2080.1L2080.3 366H2079.3ZM2121.3 364.2L2121.1 359.2H2122.1L2122.3 364.2H2121.3ZM2163.3 362.6L2163.1 357.6H2164.1L2164.3 362.6H2163.3ZM2205.2 361.1L2205 356.1H2206L2206.2 361.1H2205.2ZM2247.2 359.7L2247 354.7H2248L2248.1 359.7H2247.2ZM2289.2 358.4L2289.1 353.4H2290.1L2290.2 358.4H2289.2ZM2331.2 357.3L2331.1 352.3H2332.1L2332.2 357.3H2331.2ZM2373.1 356.3L2373 351.3H2374L2374.1 356.3H2373.1ZM2415.1 355.4L2415 350.4H2416L2416.1 355.4H2415.1ZM2457.1 354.6L2457 349.6H2458L2458.1 354.6H2457.1ZM2499.1 353.9L2499 348.9H2500L2500.1 353.9H2499.1ZM2541.1 353.4L2541 348.4H2542L2542.1 353.4H2541.1ZM2583.1 352.9V347.9H2584.1V352.9H2583.1ZM2625.1 352.6V347.6H2626.1V352.6H2625.1ZM2667.1 352.4V347.4H2668.1V352.4H2667.1ZM2709 352.3V347.3H2710V352.3H2709Z" fill="#382CDD"/>
<path d="M793 462.5L791.5 457.7L792.5 457.4L794 462.2L793 462.5ZM833.1 450.5L831.7 445.7L832.7 445.4L834.1 450.2L833.1 450.5ZM873.6 439.3L872.3 434.5L873.3 434.2L874.6 439L873.6 439.3ZM914.3 429L913.1 424.1L914.1 423.9L915.3 428.8L914.3 429ZM955.1 419.5L954 414.6L955 414.4L956.1 419.3L955.1 419.5ZM996.1 410.5L995.1 405.6L996.1 405.4L997.1 410.3L996.1 410.5ZM1037.3 402.2L1036.3 397.3L1037.3 397.1L1038.3 402L1037.3 402.2ZM1078.5 394.4L1077.6 389.5L1078.6 389.3L1079.5 394.2L1078.5 394.4ZM1119.8 387.1L1118.9 382.2L1119.9 382L1120.7 386.9L1119.8 387.1ZM1161.3 380.2L1160.5 375.3L1161.5 375.1L1162.3 380L1161.3 380.2ZM1202.8 373.8L1202.1 368.9L1203.1 368.8L1203.8 373.7L1202.8 373.8ZM1244.3 367.7L1243.6 362.7L1244.6 362.6L1245.3 367.6L1244.3 367.7ZM1285.9 362.1L1285.2 357.1L1286.2 357L1286.8 362L1285.9 362.1ZM1327.5 356.8L1326.9 351.8L1327.9 351.7L1328.5 356.7L1327.5 356.8ZM1369.2 351.8L1368.6 346.8L1369.6 346.7L1370.2 351.7L1369.2 351.8ZM1411 347.1L1410.5 342.1L1411.5 342L1412 347L1411 347.1ZM1452.7 342.8L1452.2 337.8L1453.2 337.7L1453.7 342.7L1452.7 342.8ZM1494.5 338.7L1494 333.7L1495 333.6L1495.5 338.6L1494.5 338.7ZM1536.3 335L1535.9 330L1536.9 329.9L1537.3 334.9L1536.3 335ZM1578.2 331.5L1577.8 326.5L1578.8 326.4L1579.2 331.4L1578.2 331.5ZM1620.1 328.3L1619.7 323.3L1620.7 323.2L1621.1 328.2L1620.1 328.3ZM1661.9 325.4L1661.6 320.4L1662.6 320.3L1662.9 325.3L1661.9 325.4ZM1703.9 322.7L1703.6 317.7L1704.6 317.6L1704.9 322.6L1703.9 322.7ZM1745.8 320.2L1745.5 315.2L1746.5 315.1L1746.8 320.1L1745.8 320.2ZM1787.7 318L1787.5 313H1788.5L1788.7 318H1787.7ZM1829.7 316.1L1829.5 311.1H1830.5L1830.7 316.1H1829.7ZM1871.6 314.3L1871.4 309.3H1872.4L1872.6 314.3H1871.6ZM1913.6 312.8L1913.4 307.8H1914.4L1914.6 312.8H1913.6ZM1955.5 311.6L1955.4 306.6H1956.4L1956.5 311.6H1955.5ZM1997.5 310.5L1997.4 305.5H1998.4L1998.5 310.5H1997.5ZM2039.5 309.7L2039.4 304.7H2040.4L2040.5 309.7H2039.5ZM2081.5 309.1L2081.4 304.1H2082.4L2082.5 309.1H2081.5ZM2123.5 308.7V303.7H2124.5V308.7H2123.5ZM2165.4 308.6V303.6H2166.4V308.6H2165.4Z" fill="#382CDD"/>
<path d="M797.3 416.5L795.3 411.9L796.2 411.5L798.2 416.1L797.3 416.5ZM836.1 400.8L834.3 396.1L835.2 395.7L837 400.4L836.1 400.8ZM875.5 386.5L873.9 381.8L874.8 381.5L876.4 386.2L875.5 386.5ZM915.4 373.6L913.9 368.8L914.9 368.5L916.4 373.3L915.4 373.6ZM955.7 361.8L954.4 357L955.4 356.7L956.7 361.5L955.7 361.8ZM996.2 351L995 346.2L996 346L997.2 350.8L996.2 351ZM1037 341.1L1035.9 336.2L1036.9 336L1038 340.9L1037 341.1ZM1077.9 332.1L1076.9 327.2L1077.9 327L1078.9 331.9L1077.9 332.1ZM1119.1 323.7L1118.1 318.8L1119.1 318.6L1120 323.5L1119.1 323.7ZM1160.3 316.1L1159.4 311.2L1160.4 311L1161.3 315.9L1160.3 316.1ZM1201.7 309.1L1200.9 304.2L1201.9 304L1202.7 308.9L1201.7 309.1ZM1243.2 302.8L1242.5 297.9L1243.5 297.8L1244.2 302.7L1243.2 302.8ZM1284.8 297L1284.1 292L1285.1 291.9L1285.7 296.9L1284.8 297ZM1326.4 291.8L1325.8 286.8L1326.8 286.7L1327.4 291.7L1326.4 291.8ZM1368.1 287.1L1367.6 282.1L1368.6 282L1369.1 287L1368.1 287.1ZM1409.9 282.9L1409.4 277.9L1410.4 277.8L1410.9 282.8L1409.9 282.9ZM1451.7 279.2L1451.3 274.2L1452.3 274.1L1452.7 279.1L1451.7 279.2ZM1493.6 275.9L1493.2 270.9L1494.2 270.8L1494.6 275.8L1493.6 275.9ZM1535.5 273.1L1535.2 268.1L1536.2 268L1536.5 273L1535.5 273.1ZM1577.4 270.8L1577.2 265.8H1578.2L1578.4 270.8H1577.4ZM1619.3 268.9L1619.1 263.9H1620.1L1620.3 268.9H1619.3ZM1661.3 267.5L1661.2 262.5H1662.2L1662.3 267.5H1661.3ZM1703.2 266.5L1703.1 261.5H1704.1L1704.2 266.5H1703.2ZM1745.2 265.9V260.9H1746.2L1746.3 265.9H1745.2Z" fill="#382CDD"/>
<path d="M800.5 371.4L797.9 367.1L798.8 366.6L801.3 370.9L800.5 371.4ZM837.2 351.3L834.9 346.8L835.8 346.3L838 350.8L837.2 351.3ZM875.1 333.5L873.1 328.9L874 328.5L876 333.1L875.1 333.5ZM913.8 317.7L912 313L912.9 312.6L914.7 317.3L913.8 317.7ZM953.3 303.5L951.7 298.8L952.7 298.5L954.3 303.2L953.3 303.5ZM993.2 290.9L991.8 286.1L992.8 285.8L994.2 290.6L993.2 290.9ZM1033.6 279.6L1032.3 274.8L1033.3 274.5L1034.6 279.3L1033.6 279.6ZM1074.3 269.5L1073.2 264.6L1074.2 264.4L1075.3 269.3L1074.3 269.5ZM1115.3 260.7L1114.3 255.8L1115.3 255.6L1116.3 260.5L1115.3 260.7ZM1156.5 252.9L1155.6 248L1156.6 247.8L1157.5 252.7L1156.5 252.9ZM1197.9 246.1L1197.2 241.2L1198.2 241.1L1199 246L1197.9 246.1ZM1239.4 240.2L1238.8 235.2L1239.8 235.1L1240.4 240.1L1239.4 240.2ZM1281.1 235.3L1280.6 230.3L1281.6 230.2L1282.1 235.2L1281.1 235.3ZM1322.9 231.3L1322.5 226.3L1323.5 226.2L1323.9 231.2L1322.9 231.3ZM1364.7 228.2L1364.4 223.2L1365.4 223.1L1365.7 228.1L1364.7 228.2ZM1406.6 225.9L1406.4 220.9H1407.4L1407.6 225.9H1406.6ZM1448.5 224.4L1448.4 219.4H1449.4L1449.5 224.4H1448.5ZM1490.5 223.7V218.7H1491.5V223.7H1490.5Z" fill="#382CDD"/>
<path d="M802.9 327.1L799.7 323.2L800.5 322.6L803.7 326.5L802.9 327.1ZM836.5 302.3L833.7 298.1L834.5 297.5L837.3 301.7L836.5 302.3ZM872.2 280.7L869.8 276.3L870.7 275.8L873.1 280.2L872.2 280.7ZM909.5 261.7L907.4 257.2L908.3 256.8L910.4 261.3L909.5 261.7ZM948 245.2L946.2 240.5L947.1 240.1L948.9 244.7L948 245.2ZM987.3 230.9L985.7 226.2L986.7 225.9L988.3 230.6L987.3 230.9ZM1027.4 218.7L1026.1 213.9L1027.1 213.6L1028.4 218.4L1027.4 218.7ZM1068 208.4L1066.9 203.5L1067.9 203.3L1069 208.2L1068 208.4ZM1109 199.9L1108.1 195L1109.1 194.8L1110 199.7L1109 199.9ZM1150.3 193.2L1149.6 188.2L1150.6 188.1L1151.3 193.1L1150.3 193.2ZM1191.9 188.1L1191.4 183.1L1192.4 183L1192.9 188L1191.9 188.1ZM1233.7 184.7L1233.4 179.7L1234.4 179.6L1234.7 184.6L1233.7 184.7ZM1275.6 182.8L1275.5 177.8H1276.5L1276.6 182.8H1275.6Z" fill="#382CDD"/>
<path d="M804.6 283.5L800.9 280.2L801.6 279.5L805.3 282.8L804.6 283.5ZM834.3 254.3L831 250.5L831.8 249.8L835.1 253.6L834.3 254.3ZM867.2 228.6L864.3 224.5L865.1 223.9L868 228L867.2 228.6ZM902.6 206.5L900.2 202.1L901.1 201.6L903.5 206L902.6 206.5ZM939.9 187.7L937.9 183.1L938.8 182.7L940.8 187.3L939.9 187.7ZM978.7 172.4L977.1 167.7L978.1 167.4L979.7 172.1L978.7 172.4ZM1018.7 160.2L1017.4 155.4L1018.4 155.1L1019.7 159.9L1018.7 160.2ZM1059.5 151.2L1058.6 146.3L1059.6 146.1L1060.5 151L1059.5 151.2ZM1100.9 145.3L1100.4 140.3L1101.4 140.2L1101.9 145.2L1100.9 145.3ZM1142.6 142.4L1142.4 137.4H1143.4L1143.6 142.4H1142.6Z" fill="#382CDD"/>
<path d="M805.9 240.8L801.7 238.1L802.2 237.3L806.4 240L805.9 240.8ZM831 207.6L827.2 204.3L827.9 203.5L831.7 206.8L831 207.6ZM860.3 178.1L857 174.3L857.8 173.6L861.1 177.4L860.3 178.1ZM893.4 152.8L890.6 148.6L891.4 148L894.1 152.2L893.4 152.8ZM929.6 132.2L927.4 127.7L928.3 127.3L930.5 131.8L929.6 132.2ZM968.3 116.9L966.8 112.1L967.8 111.8L969.3 116.6L968.3 116.9ZM1008.7 106.9L1007.8 102L1008.8 101.8L1009.6 106.7L1008.7 106.9ZM1050.1 102.6L1049.9 97.6001H1050.9L1051.1 102.6H1050.1Z" fill="#382CDD"/>
<path d="M862.5 178.2L877.2 169.8L1057.5 59.4L1057.6 59.3L1147.5 -137.6L1146.6 -138L1056.7 58.7L876.7 168.9L862 177.4L862.5 178.2Z" fill="#006B93"/>
<path d="M815.6 990.7L815.5 985.7H816.5L816.6 990.7H815.6ZM857.7 989.7L857.5 984.7H858.5L858.7 989.7H857.7ZM899.7 987.7L899.4 982.7L900.4 982.6L900.7 987.6L899.7 987.7ZM941.6 984.8L941.2 979.8L942.2 979.7L942.6 984.7L941.6 984.8ZM983.5 980.8L983 975.8L984 975.7L984.5 980.7L983.5 980.8ZM1025.3 975.9L1024.6 970.9L1025.6 970.8L1026.2 975.8L1025.3 975.9ZM1066.9 969.9L1066.1 965L1067.1 964.8L1067.9 969.7L1066.9 969.9ZM1108.4 962.9L1107.5 958L1108.5 957.8L1109.4 962.7L1108.4 962.9ZM1149.7 954.8L1148.7 949.9L1149.7 949.7L1150.7 954.6L1149.7 954.8ZM1190.8 945.6L1189.6 940.7L1190.6 940.5L1191.8 945.4L1190.8 945.6ZM1231.5 935.2L1230.2 930.4L1231.2 930.1L1232.5 934.9L1231.5 935.2ZM1272 923.6L1270.5 918.8L1271.5 918.5L1272.9 923.3L1272 923.6ZM1312.1 910.8L1310.5 906.1L1311.4 905.8L1313 910.5L1312.1 910.8ZM1351.8 896.8L1350 892.1L1350.9 891.7L1352.7 896.4L1351.8 896.8ZM1390.9 881.3L1389 876.7L1389.9 876.3L1391.8 880.9L1390.9 881.3ZM1429.5 864.4L1427.4 859.9L1428.3 859.5L1430.4 864L1429.5 864.4ZM1467.4 846L1465.1 841.5L1466 841L1468.3 845.4L1467.4 846ZM1504.4 826L1501.9 821.7L1502.8 821.2L1505.3 825.5L1504.4 826ZM1540.5 804.3L1537.8 800.1L1538.6 799.6L1541.3 803.8L1540.5 804.3ZM1575.4 780.7L1572.5 776.6L1573.3 776L1576.2 780.1L1575.4 780.7ZM1608.9 755.1L1605.7 751.2L1606.5 750.6L1609.7 754.5L1608.9 755.1ZM1640.6 727.4L1637.2 723.7L1637.9 723L1641.3 726.6L1640.6 727.4ZM1670.3 697.4L1666.6 694L1667.3 693.3L1671 696.7L1670.3 697.4ZM1697.3 665L1693.3 662L1693.9 661.2L1697.9 664.2L1697.3 665ZM1721 630.1L1716.7 627.5L1717.2 626.6L1721.5 629.2L1721 630.1ZM1740.7 592.8L1736.1 590.7L1736.5 589.8L1741.1 591.9L1740.7 592.8ZM1755.7 553.3L1750.9 551.8L1751.2 550.9L1756 552.3L1755.7 553.3ZM1765 512.1L1760.1 511.3L1760.2 510.3L1765.1 511L1765 512.1ZM1768.3 470H1763.3V469H1768.3V470Z" fill="#00AAB8"/>
<path d="M850.8 943.7V938.7H851.8V943.7H850.8ZM892.9 942.8L892.7 937.8H893.7L893.9 942.8H892.9ZM934.9 940.7L934.6 935.7L935.6 935.6L935.9 940.6L934.9 940.7ZM976.8 937.5L976.3 932.5L977.3 932.4L977.8 937.4L976.8 937.5ZM1018.7 933L1018.1 928L1019.1 927.9L1019.7 932.9L1018.7 933ZM1060.4 927.2L1059.6 922.3L1060.6 922.1L1061.4 927L1060.4 927.2ZM1101.9 920.2L1101 915.3L1102 915.1L1102.9 920L1101.9 920.2ZM1143.1 911.9L1142 907L1143 906.8L1144.1 911.7L1143.1 911.9ZM1184.1 902.2L1182.9 897.4L1183.9 897.2L1185.1 902L1184.1 902.2ZM1224.7 891.2L1223.3 886.4L1224.3 886.1L1225.7 890.9L1224.7 891.2ZM1264.9 878.7L1263.3 874L1264.3 873.7L1265.9 878.4L1264.9 878.7ZM1304.6 864.7L1302.9 860L1303.8 859.7L1305.6 864.4L1304.6 864.7ZM1343.8 849.2L1341.9 844.6L1342.8 844.2L1344.8 848.8L1343.8 849.2ZM1382.2 832L1380.1 827.5L1381 827.1L1383.2 831.6L1382.2 832ZM1419.8 813.1L1417.4 808.7L1418.3 808.2L1420.7 812.6L1419.8 813.1ZM1456.5 792.3L1453.9 788L1454.8 787.5L1457.4 791.8L1456.5 792.3ZM1491.9 769.5L1489.1 765.4L1489.9 764.8L1492.7 768.9L1491.9 769.5ZM1525.9 744.6L1522.8 740.7L1523.6 740.1L1526.7 744L1525.9 744.6ZM1558.2 717.5L1554.8 713.8L1555.5 713.1L1558.9 716.8L1558.2 717.5ZM1588.3 688L1584.6 684.6L1585.3 683.9L1589 687.3L1588.3 688ZM1615.7 655.9L1611.7 652.8L1612.3 652L1616.3 655.1L1615.7 655.9ZM1639.9 621.3L1635.6 618.7L1636.1 617.8L1640.4 620.4L1639.9 621.3ZM1659.9 584.1L1655.4 582L1655.8 581.1L1660.3 583.2L1659.9 584.1ZM1675.1 544.7L1670.3 543.2L1670.6 542.3L1675.4 543.8L1675.1 544.7ZM1684.6 503.5L1679.7 502.7L1679.8 501.7L1684.7 502.5L1684.6 503.5ZM1687.9 461.4H1682.9V460.4H1687.9V461.4Z" fill="#00AAB8"/>
<path d="M896.8 900.1L896.7 895.1H897.7L897.8 900.1H896.8ZM938.9 898.8L938.7 893.8H939.7L939.9 898.8H938.9ZM980.9 896.1L980.5 891.1L981.5 891L981.9 896L980.9 896.1ZM1022.8 891.8L1022.2 886.8L1023.2 886.7L1023.8 891.7L1022.8 891.8ZM1064.5 886.1L1063.7 881.2L1064.7 881L1065.5 885.9L1064.5 886.1ZM1105.9 878.8L1104.9 873.9L1105.9 873.7L1106.9 878.6L1105.9 878.8ZM1147.1 870L1145.9 865.1L1146.9 864.9L1148.1 869.8L1147.1 870ZM1187.9 859.5L1186.6 854.7L1187.6 854.4L1188.9 859.2L1187.9 859.5ZM1228.2 847.4L1226.7 842.6L1227.6 842.3L1229.2 847.1L1228.2 847.4ZM1268 833.4L1266.2 828.7L1267.1 828.3L1268.9 833L1268 833.4ZM1307 817.7L1305 813.1L1305.9 812.7L1307.9 817.3L1307 817.7ZM1345.3 800.1L1343.1 795.6L1344 795.2L1346.2 799.7L1345.3 800.1ZM1382.5 780.4L1380 776L1380.9 775.5L1383.4 779.9L1382.5 780.4ZM1418.6 758.6L1415.9 754.4L1416.7 753.9L1419.4 758.1L1418.6 758.6ZM1453.2 734.6L1450.2 730.6L1451 730L1454 734L1453.2 734.6ZM1486.1 708.1L1482.8 704.3L1483.6 703.6L1486.9 707.4L1486.1 708.1ZM1516.7 679.1L1513.1 675.6L1513.8 674.9L1517.4 678.4L1516.7 679.1ZM1544.6 647.4L1540.7 644.3L1541.3 643.5L1545.2 646.6L1544.6 647.4ZM1569.2 613.1L1565 610.4L1565.5 609.6L1569.7 612.3L1569.2 613.1ZM1589.6 576.1L1585.1 574L1585.5 573.1L1590 575.2L1589.6 576.1ZM1605 536.8L1600.2 535.3L1600.5 534.4L1605.3 535.9L1605 536.8ZM1614.6 495.6L1609.7 494.8L1609.9 493.8L1614.8 494.6L1614.6 495.6ZM1618 453.5H1613V452.5H1618V453.5Z" fill="#00AAB8"/>
<path d="M952.3 859.2L952.1 854.2H953.1L953.3 859.2H952.3ZM994.3 856.8L993.9 851.8L994.9 851.7L995.3 856.7L994.3 856.8ZM1036.2 852.5L1035.6 847.5L1036.6 847.4L1037.2 852.4L1036.2 852.5ZM1077.9 846.5L1077.1 841.6L1078.1 841.4L1078.9 846.3L1077.9 846.5ZM1119.3 838.5L1118.2 833.6L1119.2 833.4L1120.3 838.3L1119.3 838.5ZM1160.2 828.6L1158.9 823.8L1159.9 823.5L1161.2 828.3L1160.2 828.6ZM1200.6 816.8L1199.1 812L1200 811.7L1201.5 816.5L1200.6 816.8ZM1240.4 802.8L1238.6 798.1L1239.5 797.7L1241.3 802.4L1240.4 802.8ZM1279.4 786.8L1277.4 782.2L1278.3 781.8L1280.3 786.4L1279.4 786.8ZM1317.3 768.5L1315 764.1L1315.9 763.6L1318.2 768L1317.3 768.5ZM1354.1 747.9L1351.5 743.6L1352.4 743.1L1355 747.4L1354.1 747.9ZM1389.4 724.8L1386.5 720.7L1387.3 720.1L1390.2 724.2L1389.4 724.8ZM1422.9 699.1L1419.7 695.3L1420.5 694.7L1423.7 698.5L1422.9 699.1ZM1454.1 670.7L1450.6 667.2L1451.3 666.5L1454.8 670L1454.1 670.7ZM1482.5 639.5L1478.6 636.3L1479.2 635.5L1483.1 638.7L1482.5 639.5ZM1507.5 605.5L1503.3 602.8L1503.8 602L1508 604.7L1507.5 605.5ZM1528.3 568.7L1523.8 566.5L1524.2 565.6L1528.7 567.8L1528.3 568.7ZM1544 529.4L1539.2 527.9L1539.5 527L1544.3 528.5L1544 529.4ZM1553.8 488.3L1548.9 487.5L1549.1 486.5L1554 487.3L1553.8 488.3ZM1557.2 446.2H1552.2V445.2H1557.2V446.2Z" fill="#00AAB8"/>
<path d="M974 822.1L973.8 817.1H974.8L975 822.1H974ZM1016.1 819.6L1015.7 814.6L1016.7 814.5L1017.1 819.5L1016.1 819.6ZM1057.9 814.8L1057.2 809.8L1058.2 809.7L1058.9 814.7L1057.9 814.8ZM1099.5 807.8L1098.5 802.9L1099.5 802.7L1100.5 807.6L1099.5 807.8ZM1140.6 798.5L1139.4 793.7L1140.4 793.5L1141.6 798.3L1140.6 798.5ZM1181.1 786.9L1179.6 782.1L1180.6 781.8L1182.1 786.6L1181.1 786.9ZM1220.8 772.8L1219 768.1L1219.9 767.7L1221.7 772.4L1220.8 772.8ZM1259.6 756.3L1257.5 751.8L1258.4 751.4L1260.5 755.9L1259.6 756.3ZM1297.1 737.1L1294.7 732.7L1295.6 732.2L1298 736.6L1297.1 737.1ZM1333.2 715.2L1330.4 711L1331.2 710.5L1334 714.7L1333.2 715.2ZM1367.4 690.4L1364.3 686.5L1365.1 685.9L1368.2 689.8L1367.4 690.4ZM1399.3 662.8L1395.9 659.2L1396.6 658.5L1400.1 662.1L1399.3 662.8ZM1428.3 632.1L1424.5 628.9L1425.1 628.1L1428.9 631.3L1428.3 632.1ZM1453.8 598.4L1449.6 595.6L1450.1 594.8L1454.3 597.6L1453.8 598.4ZM1474.9 561.8L1470.4 559.6L1470.8 558.7L1475.3 560.9L1474.9 561.8ZM1490.9 522.6L1486.1 521L1486.4 520.1L1491.2 521.6L1490.9 522.6ZM1500.9 481.5L1496 480.7L1496.2 479.7L1501.1 480.5L1500.9 481.5ZM1504.4 439.4H1499.4V438.4H1504.4V439.4Z" fill="#00AAB8"/>
<path d="M1003 787.3L1002.8 782.3H1003.8L1004 787.3H1003ZM1045 784.1L1044.5 779.1L1045.5 779L1046.1 784L1045 784.1ZM1086.8 778.1L1085.9 773.2L1086.9 773L1087.8 777.9L1086.8 778.1ZM1128 769.3L1126.8 764.4L1127.8 764.2L1129 769L1128 769.3ZM1168.6 757.8L1167 753L1167.9 752.7L1169.5 757.5L1168.6 757.8ZM1208.2 743.4L1206.3 738.8L1207.2 738.4L1209.1 743L1208.2 743.4ZM1246.6 726L1244.4 721.5L1245.3 721.1L1247.6 725.6L1246.6 726ZM1283.5 705.5L1280.9 701.2L1281.8 700.7L1284.4 705L1283.5 705.5ZM1318.5 681.9L1315.5 677.9L1316.3 677.3L1319.3 681.3L1318.5 681.9ZM1351.2 655.1L1347.8 651.4L1348.5 650.7L1351.9 654.4L1351.2 655.1ZM1380.9 625L1377.1 621.7L1377.8 620.9L1381.6 624.2L1380.9 625ZM1406.9 591.7L1402.8 588.9L1403.4 588.1L1407.5 590.9L1406.9 591.7ZM1428.4 555.4L1423.9 553.1L1424.3 552.2L1428.8 554.4L1428.4 555.4ZM1444.7 516.3L1440 514.7L1440.3 513.8L1445.1 515.4L1444.7 516.3ZM1454.9 475.3L1450 474.5L1450.2 473.5L1455.1 474.3L1454.9 475.3ZM1458.4 433.1H1453.4V432.1H1458.4V433.1Z" fill="#00AAB8"/>
<path d="M996.2 756V751H997.2V756H996.2ZM1038.3 754.3L1037.9 749.3L1038.9 749.2L1039.3 754.2L1038.3 754.3ZM1080.2 749.4L1079.4 744.5L1080.4 744.3L1081.2 749.2L1080.2 749.4ZM1121.6 741.1L1120.4 736.2L1121.4 736L1122.6 740.9L1121.6 741.1ZM1162.1 729.4L1160.5 724.7L1161.4 724.4L1163 729.1L1162.1 729.4ZM1201.5 714.3L1199.5 709.7L1200.4 709.3L1202.4 713.9L1201.5 714.3ZM1239.4 695.6L1237 691.2L1237.9 690.7L1240.3 695.1L1239.4 695.6ZM1275.4 673.5L1272.6 669.4L1273.4 668.8L1276.2 672.9L1275.4 673.5ZM1308.8 647.7L1305.5 643.9L1306.3 643.3L1309.6 647.1L1308.8 647.7ZM1339.3 618.4L1335.6 615L1336.3 614.3L1340 617.7L1339.3 618.4ZM1365.9 585.5L1361.8 582.6L1362.4 581.8L1366.5 584.7L1365.9 585.5ZM1387.9 549.4L1383.5 547.1L1384 546.2L1388.4 548.5L1387.9 549.4ZM1404.5 510.5L1399.8 508.9L1400.1 508L1404.8 509.6L1404.5 510.5ZM1414.8 469.5L1409.9 468.7L1410.1 467.7L1415 468.5L1414.8 469.5ZM1418.4 427.3H1413.4V426.3H1418.4V427.3Z" fill="#00AAB8"/>
<path d="M1037.1 725.9L1036.9 720.9H1037.9L1038.1 725.9H1037.1ZM1079.1 721.8L1078.4 716.9L1079.4 716.8L1080.1 721.7L1079.1 721.8ZM1120.6 713.8L1119.4 708.9L1120.4 708.7L1121.6 713.5L1120.6 713.8ZM1161 701.6L1159.3 696.9L1160.2 696.6L1161.9 701.3L1161 701.6ZM1200 685.3L1197.8 680.8L1198.7 680.4L1200.9 684.9L1200 685.3ZM1237 664.9L1234.3 660.7L1235.1 660.2L1237.8 664.4L1237 664.9ZM1271.5 640.4L1268.4 636.5L1269.2 635.9L1272.3 639.8L1271.5 640.4ZM1302.7 612L1299.1 608.5L1299.8 607.8L1303.4 611.3L1302.7 612ZM1330.1 579.7L1326.1 576.7L1326.7 575.9L1330.7 578.8L1330.1 579.7ZM1352.6 543.9L1348.2 541.5L1348.7 540.6L1353.1 542.9L1352.6 543.9ZM1369.5 505.1L1364.8 503.5L1365.1 502.6L1369.8 504.2L1369.5 505.1ZM1380 464.1L1375.1 463.3L1375.3 462.3L1380.2 463.1L1380 464.1ZM1383.7 421.9H1378.7V420.9H1383.7V421.9Z" fill="#00AAB8"/>
<path d="M1040.8 698.9L1040.7 693.9H1041.7L1041.8 698.9H1040.8ZM1082.9 695.5L1082.2 690.5L1083.2 690.4L1083.9 695.4L1082.9 695.5ZM1124.3 687.3L1123 682.5L1124 682.2L1125.3 687L1124.3 687.3ZM1164.5 674.1L1162.6 669.5L1163.5 669.1L1165.4 673.7L1164.5 674.1ZM1202.7 656L1200.3 651.6L1201.2 651.1L1203.6 655.5L1202.7 656ZM1238.3 633.2L1235.3 629.2L1236.1 628.6L1239.1 632.6L1238.3 633.2ZM1270.6 605.8L1267.1 602.2L1267.8 601.5L1271.3 605.1L1270.6 605.8ZM1298.7 574.2L1294.7 571.2L1295.3 570.4L1299.3 573.4L1298.7 574.2ZM1321.8 538.7L1317.4 536.3L1317.9 535.4L1322.3 537.8L1321.8 538.7ZM1339 500.1L1334.3 498.4L1334.6 497.5L1339.3 499.1L1339 500.1ZM1349.7 459.1L1344.8 458.2L1345 457.2L1349.9 458L1349.7 459.1ZM1353.4 416.9H1348.4V415.9H1353.4V416.9Z" fill="#00AAB8"/>
<path d="M1048.6 673.6V668.6H1049.6V673.6H1048.6ZM1090.8 670.5L1090.1 665.6L1091.1 665.5L1091.8 670.4L1090.8 670.5ZM1132.2 661.4L1130.8 656.6L1131.8 656.3L1133.2 661.1L1132.2 661.4ZM1171.7 646.5L1169.6 642L1170.5 641.6L1172.6 646.1L1171.7 646.5ZM1208.7 625.8L1205.9 621.6L1206.7 621.1L1209.5 625.3L1208.7 625.8ZM1242.1 599.8L1238.7 596.1L1239.4 595.4L1242.8 599.1L1242.1 599.8ZM1271.1 569L1267.2 565.9L1267.8 565.1L1271.7 568.2L1271.1 569ZM1294.8 533.9L1290.4 531.4L1290.9 530.5L1295.3 532.9L1294.8 533.9ZM1312.5 495.4L1307.8 493.7L1308.1 492.8L1312.8 494.5L1312.5 495.4ZM1323.4 454.5L1318.5 453.6L1318.7 452.6L1323.6 453.4L1323.4 454.5ZM1327.2 412.3H1322.2V411.3H1327.2V412.3Z" fill="#00AAB8"/>
<path d="M1061.3 650H1060.8L1061.3 647.5V645V647.4L1061.8 645L1061.3 647.4V650ZM1102.5 646.6L1101.7 641.7L1102.7 641.5L1103.6 646.4L1102.5 646.6ZM1143.5 635.8L1141.8 631.1L1142.7 630.8L1144.4 635.5L1143.5 635.8ZM1181.9 618L1179.4 613.7L1180.3 613.2L1182.8 617.5L1181.9 618ZM1216.7 593.8L1213.5 590L1214.3 589.4L1217.5 593.2L1216.7 593.8ZM1246.8 564L1243 560.8L1243.6 560L1247.4 563.2L1246.8 564ZM1271.3 529.4L1267 526.9L1267.5 526L1271.8 528.5L1271.3 529.4ZM1289.4 491.1L1284.7 489.4L1285 488.5L1289.7 490.2L1289.4 491.1ZM1300.5 450.2L1295.6 449.3L1295.8 448.3L1300.7 449.2L1300.5 450.2ZM1304.3 408H1299.3V407H1304.3V408Z" fill="#00AAB8"/>
</g>
</g>
<defs>
<clipPath id="clip0_101_26">
<rect width="1440" height="892" fill="white"/>
</clipPath>
<clipPath id="clip1_101_26">
<rect width="7585.3" height="1128.7" fill="white" transform="translate(576 -138)"/>
</clipPath>
</defs>
</svg>
